<svg xmlns="http://www.w3.org/2000/svg" viewBox="0 0 22 20"><path fill="#fff" d="M20.2 17.3c0 1.5-1.3 2.7-2.8 2.7a2.7 2.7 0 01-2.7-2.7c0-1.5 1.2-2.8 2.7-2.8 1.5 0 2.8 1.3 2.8 2.8zm-1.7 0c0-.6-.5-1.1-1-1.1-.7 0-1.2.5-1.2 1 0 .7.5 1.2 1.1 1.2.6 0 1.1-.5 1.1-1.1zM22 4.7l-2 8c-.1.4-.4.7-.8.7H6.4a.8.8 0 01-.8-.6L2.9 1.6h-2A.8.8 0 010 .8C0 .4.4 0 .8 0h2.7c.4 0 .8.3.8.6l.8 3.1h16c.3 0 .6.1.7.3.2.2.2.5.2.7zm-1.9.6H5.5L7 11.7h11.5zm-9.9 12c0 1.5-1.2 2.7-2.7 2.7a2.7 2.7 0 01-2.8-2.7c0-1.5 1.3-2.8 2.8-2.8 1.5 0 2.7 1.3 2.7 2.8zm-1.6 0c0-.6-.5-1.1-1.1-1.1-.6 0-1.1.5-1.1 1a1.1 1.1 0 002.2 0z"/></svg>