<svg xmlns="http://www.w3.org/2000/svg" viewBox="0 0 55 11"><defs><linearGradient id="a" x1="55" x2="0" y1="5" y2="6" gradientUnits="userSpaceOnUse"><stop offset="0" stop-color="#ff7d56"/><stop offset="1" stop-color="#ff498e"/></linearGradient></defs><path fill="#fff" d="M54.8 5.2l-6.6-5a.8.8 0 00-.8-.1c-.3 0-.5.3-.5.6v3.9H.8a.8.8 0 00-.6.2.7.7 0 00-.2.5v.6a.7.7 0 00.2.5.8.8 0 00.6.2h46.1v3.7c0 .3.2.5.5.6.3.2.5.1.8-.1l6.6-4.5a.7.7 0 00.2-.6.7.7 0 00-.2-.5z"/><path fill="url(#a)" d="M54.8 5.2l-6.6-5a.8.8 0 00-.8-.1c-.3 0-.5.3-.5.6v3.9H.8a.8.8 0 00-.6.2.7.7 0 00-.2.5v.6a.7.7 0 00.2.5.8.8 0 00.6.2h46.1v3.7c0 .3.2.5.5.6.3.2.5.1.8-.1l6.6-4.5a.7.7 0 00.2-.6.7.7 0 00-.2-.5z"/></svg>