<svg xmlns="http://www.w3.org/2000/svg" viewBox="0 0 47 10"><defs><linearGradient id="a" x1="47" x2="0" y1="5" y2="5" gradientUnits="userSpaceOnUse"><stop offset="0" stop-color="#ff7d56"/><stop offset="1" stop-color="#ff498e"/></linearGradient></defs><path fill="#fff" d="M46.8 4.75L41.19.17a.65.65 0 00-.72-.1c-.26.1-.39.3-.39.6v3.47H.65c-.19 0-.34.06-.47.19A.66.66 0 000 4.8v.53c0 .2.06.35.18.48.13.12.28.19.47.19h39.43v3.32c0 .28.13.48.4.6.25.12.49.08.7-.12l5.62-4.08a.69.69 0 000-.98z"/><path fill="url(#a)" d="M46.8 4.75L41.19.17a.65.65 0 00-.72-.1c-.26.1-.39.3-.39.6v3.47H.65c-.19 0-.34.06-.47.19A.66.66 0 000 4.8v.53c0 .2.06.35.18.48.13.12.28.19.47.19h39.43v3.32c0 .28.13.48.4.6.25.12.49.08.7-.12l5.62-4.08a.69.69 0 000-.98z"/></svg>