<svg xmlns="http://www.w3.org/2000/svg" viewBox="0 0 16 19"><defs><linearGradient id="a" x1="16" x2="0" y1="9" y2="10" gradientUnits="userSpaceOnUse"><stop offset="0" stop-color="#ff7d56"/><stop offset="1" stop-color="#ff498e"/></linearGradient></defs><path fill="#fd2954" d="M1 17a1 1 0 110 2 1 1 0 010-2zm7-4a1 1 0 110 2 1 1 0 010-2zm7-2a1 1 0 110 2 1 1 0 010-2zM0 0h2v15H0zm7 0h2v11H7zm7 0h2v9h-2z"/><path fill="url(#a)" d="M1 17a1 1 0 110 2 1 1 0 010-2zm7-4a1 1 0 110 2 1 1 0 010-2zm7-2a1 1 0 110 2 1 1 0 010-2zM0 0h2v15H0zm7 0h2v11H7zm7 0h2v9h-2z"/></svg>