<svg xmlns="http://www.w3.org/2000/svg" viewBox="0 0 19 45"><defs><linearGradient id="a" x1="19" x2="0" y1="23" y2="22" gradientUnits="userSpaceOnUse"><stop offset="0" stop-color="#ff7d56"/><stop offset="1" stop-color="#ff498e"/></linearGradient></defs><path fill="#fd2954" d="M1 42.75c.55 0 1 .5 1 1.12C2 44.5 1.55 45 1 45s-1-.5-1-1.13c0-.62.45-1.12 1-1.12zm9-6.13c.55 0 1 .5 1 1.13 0 .62-.45 1.12-1 1.12s-1-.5-1-1.12c0-.62.45-1.13 1-1.13zM18 29c.55 0 1 .5 1 1.12 0 .63-.45 1.13-1 1.13s-1-.5-1-1.13c0-.62.45-1.12 1-1.12zM0 0h2v39.37H0zm9 0h2v32.87H9zm8 0h2v25.62h-2z"/><path fill="url(#a)" d="M1 42.75c.55 0 1 .5 1 1.12C2 44.5 1.55 45 1 45s-1-.5-1-1.13c0-.62.45-1.12 1-1.12zm9-6.13c.55 0 1 .5 1 1.13 0 .62-.45 1.12-1 1.12s-1-.5-1-1.12c0-.62.45-1.13 1-1.13zM18 29c.55 0 1 .5 1 1.12 0 .63-.45 1.13-1 1.13s-1-.5-1-1.13c0-.62.45-1.12 1-1.12zM0 0h2v39.37H0zm9 0h2v32.87H9zm8 0h2v25.62h-2z"/></svg>