<?xml version="1.0" standalone="no"?>
<!DOCTYPE svg PUBLIC "-//W3C//DTD SVG 20010904//EN"
 "http://www.w3.org/TR/2001/REC-SVG-20010904/DTD/svg10.dtd">
<svg version="1.0" xmlns="http://www.w3.org/2000/svg"
 width="266.000000pt" height="266.000000pt" viewBox="0 0 266.000000 266.000000"
 preserveAspectRatio="xMidYMid meet">
<metadata>
Created by potrace 1.11, written by Peter Selinger 2001-2013
</metadata>
<g transform="translate(0.000000,266.000000) scale(0.100000,-0.100000)"
fill="#000000" stroke="none">
<path d="M1370 2641 c12 -23 -30 -67 -55 -57 -9 3 -13 2 -10 -4 3 -6 1 -10 -4
-10 -6 0 -11 -5 -11 -12 0 -9 3 -9 12 0 22 22 29 13 8 -10 -11 -12 -20 -25
-20 -29 0 -10 26 -29 33 -24 4 3 4 2 1 -2 -3 -5 -10 -9 -15 -9 -5 -1 -11 -2
-14 -3 -3 0 1 -13 8 -28 8 -16 12 -34 10 -40 -4 -11 7 -17 28 -15 3 1 6 -6 6
-13 0 -11 -4 -12 -14 -3 -7 6 -17 7 -21 3 -4 -4 -1 -10 6 -12 6 -3 12 -9 12
-14 0 -6 -5 -7 -11 -3 -6 3 -4 -7 4 -23 11 -21 13 -33 5 -44 -8 -11 -9 -11 -5
3 3 9 -1 24 -9 35 -14 17 -15 17 -5 -3 6 -12 8 -24 4 -27 -3 -4 0 -14 8 -24 8
-9 9 -14 2 -10 -6 4 -15 2 -19 -4 -4 -7 -3 -9 2 -6 6 3 16 2 24 -3 13 -8 13
-11 1 -22 -10 -10 -12 -10 -7 0 4 6 2 12 -3 12 -6 0 -11 -7 -11 -15 0 -8 4
-15 9 -15 5 0 12 -7 15 -16 6 -15 4 -15 -10 -3 -16 13 -16 12 -6 -8 16 -29 15
-33 -5 -27 -15 5 -15 4 -3 -4 8 -6 18 -8 22 -6 15 10 8 -6 -12 -26 -16 -16
-18 -25 -11 -39 6 -10 8 -21 5 -23 -2 -3 -7 -16 -9 -28 -2 -12 -1 -20 2 -16
13 12 23 87 12 80 -14 -9 -10 3 6 16 12 10 13 8 10 -11 -3 -12 1 -29 8 -38 8
-10 8 -12 1 -8 -19 11 -24 -19 -7 -44 9 -12 12 -19 6 -16 -6 4 -13 4 -16 0 -2
-5 -2 -2 0 5 1 7 -1 11 -6 8 -15 -9 -20 -45 -6 -40 7 3 15 -2 19 -11 3 -9 2
-13 -4 -10 -5 3 -18 1 -27 -5 -17 -11 -17 -11 0 -6 9 3 17 1 17 -4 0 -6 -6
-10 -12 -10 -9 0 -10 -3 -2 -8 6 -4 10 -15 8 -25 -1 -11 2 -15 9 -10 7 4 6 -1
-2 -10 -7 -9 -9 -17 -3 -17 5 0 13 -7 16 -16 3 -8 2 -12 -4 -9 -6 3 -11 1 -11
-4 -3 -21 -4 -26 -14 -41 -7 -12 -6 -13 6 -3 12 10 17 8 28 -9 7 -11 8 -17 3
-14 -6 3 -12 3 -15 -1 -2 -5 -2 -2 0 5 1 7 -1 11 -6 8 -15 -9 -20 -45 -6 -40
7 3 15 -2 19 -11 3 -9 2 -13 -4 -10 -5 3 -18 1 -27 -5 -17 -11 -17 -11 0 -6 9
3 17 1 17 -4 0 -6 -6 -10 -12 -10 -9 0 -10 -3 -2 -8 6 -4 9 -16 7 -27 -7 -35
-3 -76 10 -92 5 -7 6 -13 1 -13 -4 0 1 -7 12 -15 18 -14 17 -14 -8 -4 -16 7
-28 17 -28 22 0 6 -3 7 -7 4 -3 -4 1 -15 10 -25 14 -15 15 -19 2 -19 -8 0 -12
4 -10 8 3 4 -2 10 -11 13 -8 3 -13 2 -10 -3 3 -5 -1 -11 -9 -14 -10 -4 -12 -1
-8 11 3 9 3 14 -2 10 -4 -4 -14 -3 -21 3 -8 7 -14 6 -20 -2 -4 -8 -3 -9 4 -5
7 4 12 2 12 -3 0 -14 -17 -14 -25 -1 -5 8 -12 7 -23 -2 -14 -11 -15 -10 -9 6
6 15 5 17 -7 7 -20 -17 -56 -22 -56 -8 0 7 -4 6 -10 -3 -8 -13 -10 -12 -10 4
0 20 0 20 -16 0 -8 -10 -12 -12 -8 -4 7 13 5 13 -9 2 -9 -8 -21 -11 -27 -7 -5
3 -10 1 -10 -5 0 -6 -4 -8 -10 -5 -5 3 -18 1 -27 -5 -16 -11 -16 -11 -1 -6 10
3 20 1 23 -4 4 -6 -1 -10 -10 -10 -10 0 -13 -5 -9 -12 4 -7 4 -10 -1 -6 -4 4
-17 2 -29 -4 -11 -7 -28 -12 -36 -13 -8 0 -16 -10 -16 -23 -1 -12 -5 -26 -9
-30 -5 -4 -5 1 -2 11 8 23 1 22 -26 -4 -12 -12 -16 -19 -9 -15 6 4 12 2 12 -3
0 -6 -10 -11 -22 -12 -13 0 -17 -3 -10 -6 6 -2 12 -9 12 -14 0 -6 -5 -7 -10
-4 -6 3 -13 -1 -16 -9 -3 -9 -10 -14 -14 -11 -5 3 -11 1 -14 -4 -4 -5 -1 -13
5 -17 8 -5 9 -3 4 6 -5 9 -4 11 3 6 14 -9 -2 -46 -20 -46 -7 0 -7 -4 -1 -13
10 -13 10 -19 -1 -59 -5 -16 -13 -25 -19 -21 -6 4 -7 1 -3 -6 5 -7 13 -10 20
-8 6 3 12 -4 12 -14 0 -13 -4 -15 -12 -8 -8 6 -14 6 -18 1 -3 -6 1 -13 10 -16
12 -5 15 -14 10 -37 -3 -16 -2 -28 2 -25 4 2 8 -6 8 -17 1 -12 5 -35 8 -50 5
-21 3 -27 -5 -21 -8 4 -9 3 -5 -5 6 -9 11 -9 24 1 13 12 14 10 3 -9 -9 -18 -9
-22 2 -17 8 3 20 -3 28 -12 8 -10 9 -15 2 -11 -6 4 -14 3 -18 -3 -3 -5 1 -10
10 -10 9 0 14 -3 12 -7 -3 -5 5 -17 16 -28 11 -11 17 -15 13 -8 -3 6 -2 15 4
18 6 4 9 1 8 -7 -2 -7 2 -12 9 -11 7 2 10 -4 7 -12 -4 -8 -10 -12 -15 -9 -5 3
-9 0 -9 -6 0 -6 6 -10 13 -9 25 3 38 -1 32 -11 -3 -5 -1 -10 4 -10 6 0 11 6
11 13 0 6 5 4 11 -6 6 -9 14 -15 20 -12 5 4 9 -1 9 -10 0 -10 -5 -13 -12 -9
-7 4 -8 3 -4 -4 4 -6 13 -9 21 -6 8 4 12 11 8 18 -4 6 1 5 10 -3 17 -14 24
-26 9 -17 -5 3 -9 -1 -9 -9 0 -8 4 -12 9 -9 17 11 58 11 58 1 0 -5 8 -3 17 4
11 10 14 10 9 2 -4 -7 -3 -13 1 -13 5 0 15 6 22 13 10 8 12 8 7 0 -3 -6 -2
-14 4 -18 5 -3 10 -1 10 5 0 6 5 8 10 5 6 -4 7 -11 4 -17 -4 -7 -2 -8 5 -4 6
4 9 11 6 16 -3 4 2 11 11 14 21 8 24 8 24 -5 0 -5 -5 -7 -12 -3 -7 5 -8 3 -4
-5 6 -9 12 -9 24 3 25 22 27 22 47 6 17 -13 18 -13 13 2 -7 16 14 20 28 5 14
-13 26 -7 15 7 -9 11 -9 16 0 22 7 4 9 3 6 -3 -4 -6 0 -14 9 -17 8 -3 13 -2
10 2 -2 4 1 14 7 23 14 18 63 47 53 30 -5 -7 -1 -9 9 -5 12 5 13 9 4 20 -9 12
-9 13 4 9 8 -4 18 -1 23 6 5 8 3 10 -7 4 -11 -7 -12 -6 -2 7 7 8 9 19 5 23 -4
5 -2 5 5 2 6 -4 14 -1 17 5 3 7 4 2 1 -12 l-5 -25 12 25 c7 14 18 31 25 38 7
7 10 19 7 26 -3 8 0 17 7 22 8 5 10 3 4 -6 -6 -9 -4 -11 4 -5 9 5 9 11 3 17
-7 7 -2 22 14 45 13 20 20 40 17 47 -12 17 -10 30 7 44 8 8 9 11 3 7 -16 -8
-16 0 -3 25 7 13 7 21 -2 26 -6 4 -8 3 -4 -4 3 -6 2 -13 -3 -17 -10 -6 -9 9 7
61 6 20 6 36 0 45 -8 11 -9 10 -4 -3 3 -10 1 -20 -3 -22 -12 -8 -7 46 7 71 9
16 9 24 0 29 -6 4 -8 3 -4 -4 3 -6 2 -13 -3 -17 -10 -6 -9 9 8 62 6 21 6 35 0
39 -5 3 -7 15 -4 25 4 11 1 26 -5 34 -10 12 -9 15 4 15 10 0 14 5 11 10 -4 6
-10 8 -15 5 -7 -4 -6 24 0 33 6 7 5 50 -2 69 -5 16 -3 25 10 32 11 7 13 10 3
11 -9 0 -11 8 -7 26 4 14 3 23 -2 20 -9 -5 -8 47 1 61 3 5 2 15 -3 23 -5 8 -5
22 1 32 7 13 6 18 -3 18 -6 0 -3 6 7 14 17 12 17 16 5 31 -11 13 -11 18 -1 25
11 6 11 8 1 12 -14 4 -20 54 -9 79 4 8 4 21 -1 29 -5 8 -4 22 1 32 7 13 6 18
-3 18 -6 0 -3 6 7 14 17 12 17 16 5 31 -11 13 -11 18 -1 25 11 6 11 8 1 12
-14 4 -20 54 -9 79 4 8 4 21 -1 29 -5 8 -4 22 1 32 7 13 6 18 -3 18 -10 0 -9
3 1 9 8 5 16 19 18 32 3 19 1 20 -14 8 -17 -13 -17 -13 -3 6 8 11 16 22 17 24
1 2 9 -2 18 -9 8 -7 15 -9 15 -4 0 5 5 2 11 -6 9 -13 10 -13 6 0 -2 8 -9 15
-15 15 -7 0 -12 3 -12 8 0 4 0 9 0 12 0 3 11 -2 24 -10 16 -11 23 -23 21 -36
-2 -11 0 -17 6 -14 5 4 7 10 4 15 -3 4 2 10 10 13 10 4 12 1 8 -10 -5 -13 -2
-15 12 -10 14 6 15 5 7 -6 -8 -10 -6 -13 8 -13 10 0 16 4 14 8 -3 4 6 7 20 6
19 -2 22 -5 14 -15 -8 -10 -7 -12 6 -7 11 4 16 2 14 -7 -2 -10 5 -13 25 -11
22 3 27 0 27 -19 0 -22 1 -22 13 -4 11 14 16 15 22 5 5 -9 4 -11 -3 -6 -7 4
-12 4 -12 -1 0 -4 12 -13 26 -20 22 -10 24 -10 13 3 -10 12 -9 13 5 8 9 -3 16
-10 16 -16 0 -5 6 -6 13 -2 9 6 9 5 0 -8 -11 -12 -9 -17 11 -26 17 -8 27 -7
36 1 10 9 11 9 6 0 -5 -9 0 -13 15 -13 18 0 19 -2 9 -15 -11 -13 -10 -14 5 -8
14 5 17 3 12 -9 -3 -10 0 -19 9 -22 9 -3 12 -1 9 4 -3 6 -1 10 4 10 6 0 11 -7
11 -15 0 -9 7 -18 15 -21 8 -4 12 -11 8 -18 -4 -6 2 -4 12 4 10 8 16 10 12 4
-4 -7 0 -15 9 -18 9 -3 14 -12 11 -19 -3 -8 1 -14 9 -14 7 0 10 5 7 10 -3 6
-1 7 5 3 7 -4 12 -14 12 -22 0 -8 4 -14 9 -14 4 0 19 -10 32 -23 38 -36 80
-87 72 -87 -3 0 -18 14 -33 32 -18 22 -27 26 -27 15 0 -9 3 -15 6 -14 3 1 23
-15 44 -36 20 -20 32 -37 25 -38 -7 0 -3 -4 10 -9 12 -5 22 -17 22 -26 0 -10
5 -14 14 -11 10 4 13 1 9 -9 -3 -7 1 -14 8 -14 7 0 9 -3 6 -6 -4 -4 -13 -1
-22 6 -13 11 -14 10 -9 -4 3 -9 13 -16 21 -16 10 0 13 -6 9 -16 -4 -10 -2 -13
6 -8 7 5 9 2 5 -9 -3 -9 1 -21 11 -29 10 -8 13 -8 9 -1 -4 6 -2 15 5 19 7 4
10 3 5 -1 -4 -5 0 -20 9 -33 15 -23 15 -25 0 -19 -12 5 -8 -5 11 -30 19 -25
24 -38 15 -41 -6 -2 -12 -8 -12 -13 0 -6 5 -7 10 -4 6 3 10 0 10 -7 0 -9 3 -9
10 2 5 8 10 10 10 5 0 -6 -6 -17 -12 -24 -10 -11 -10 -13 0 -7 8 5 12 -2 13
-21 1 -15 1 -31 0 -35 0 -5 3 -8 8 -8 5 0 12 -7 15 -16 5 -13 4 -14 -7 -6 -11
9 -13 8 -12 -6 4 -31 17 -52 29 -45 6 4 4 -2 -4 -12 -8 -10 -10 -16 -5 -13 6
4 15 -5 22 -18 9 -20 8 -26 -5 -34 -14 -8 -15 -10 -2 -11 8 -1 18 -1 23 0 4 0
7 -3 7 -9 0 -5 -10 -11 -22 -11 -17 -1 -19 -2 -5 -6 9 -2 17 -9 17 -14 0 -6
-4 -7 -10 -4 -6 3 -7 -1 -4 -9 3 -9 9 -14 13 -12 3 2 6 -13 7 -34 0 -21 -3
-37 -6 -35 -3 2 -6 -5 -6 -15 0 -10 4 -16 8 -14 13 8 9 -11 -4 -25 -10 -11
-10 -13 0 -7 15 9 16 -6 1 -21 -8 -8 -8 -13 0 -17 6 -4 11 -12 11 -17 0 -6 -4
-7 -10 -4 -6 3 -7 -1 -4 -9 3 -9 10 -13 15 -10 5 3 6 -2 3 -10 -3 -9 -9 -14
-13 -11 -4 2 -8 -2 -8 -10 0 -8 4 -15 9 -15 4 0 8 -5 8 -11 0 -5 -6 -7 -12 -3
-7 4 -1 -6 13 -22 15 -16 24 -35 21 -43 -2 -8 0 -11 6 -7 6 3 13 2 17 -4 3 -5
12 -10 18 -10 8 0 8 3 -1 9 -7 4 -15 20 -16 34 -2 15 1 24 6 21 5 -3 7 -12 4
-20 -3 -7 -1 -16 4 -19 10 -6 6 36 -5 56 -7 11 -6 12 6 2 13 -11 15 -9 14 10
-1 12 2 28 8 35 6 7 6 12 1 11 -20 -3 -22 2 -14 30 6 21 5 31 -3 35 -9 3 -8 5
1 5 6 1 12 6 12 12 0 5 -4 7 -10 4 -6 -3 -7 1 -4 9 3 9 10 14 14 11 5 -3 3 11
-3 31 -8 26 -8 40 1 54 8 14 8 21 1 26 -6 3 -9 24 -7 45 2 22 0 39 -4 39 -5 0
-8 5 -8 11 0 5 4 7 10 4 6 -4 7 1 3 11 -5 13 -3 15 8 9 8 -5 5 2 -6 14 -11 13
-20 31 -20 40 0 9 -4 22 -8 28 -6 9 -3 11 7 7 9 -3 16 -2 16 4 0 5 -6 12 -13
15 -9 3 -12 16 -9 36 2 18 0 31 -4 30 -22 -4 -26 3 -10 20 15 17 15 19 -1 32
-17 13 -17 13 -3 -6 14 -19 14 -19 -3 -6 -12 10 -15 17 -7 25 13 13 13 26 -1
26 -5 0 -7 -4 -4 -10 3 -5 1 -10 -4 -10 -13 0 -14 17 -2 24 14 9 0 55 -18 59
-12 4 -11 5 4 6 15 1 17 3 6 10 -7 5 -13 20 -13 35 0 23 -11 31 -39 28 -3 -1
-6 5 -6 13 0 8 3 12 7 10 4 -2 7 2 7 9 0 9 -7 12 -16 9 -13 -5 -14 -3 -3 8 15
16 16 29 1 29 -5 0 -7 -4 -4 -10 10 -16 -1 -11 -16 7 -8 9 -9 14 -3 10 7 -4
14 0 17 8 4 10 1 12 -10 8 -11 -4 -14 -2 -9 5 4 7 2 12 -4 12 -6 0 -8 5 -4 13
5 8 2 7 -9 -2 -15 -12 -17 -12 -11 4 4 9 2 20 -5 24 -6 4 -12 25 -13 47 -1 21
-3 33 -6 26 -6 -18 -32 -15 -32 4 0 9 -8 23 -17 31 -11 9 -12 11 -3 7 8 -4 0
7 -18 24 -21 20 -31 36 -26 44 4 7 4 10 -1 6 -4 -4 -14 -1 -21 7 -17 17 -18
29 -2 19 7 -4 8 -3 4 5 -4 6 -12 9 -17 5 -14 -8 -41 17 -35 32 3 7 1 16 -5 19
-5 4 -6 12 -2 18 4 7 -1 6 -10 -2 -18 -15 -27 -12 -31 11 -4 30 -17 40 -34 26
-13 -11 -14 -11 -8 0 9 15 -21 55 -35 47 -14 -9 -22 17 -8 27 10 6 7 7 -10 3
-18 -6 -22 -4 -16 6 5 8 5 11 0 7 -4 -4 -14 -3 -22 4 -11 9 -12 7 -6 -8 6 -16
5 -17 -9 -4 -8 8 -13 22 -10 30 5 13 4 13 -13 0 -11 -9 -16 -10 -11 -2 4 6 2
12 -3 12 -6 0 -11 6 -11 14 0 17 -27 29 -35 15 -4 -5 -11 -7 -16 -3 -6 3 -5
12 3 22 12 14 10 14 -9 3 -19 -10 -23 -9 -23 4 0 8 -6 15 -12 15 -9 0 -8 4 2
11 12 8 10 9 -9 4 -15 -5 -21 -3 -17 3 3 6 -2 8 -13 5 -10 -3 -22 1 -26 8 -6
8 -4 10 5 4 9 -5 11 -4 6 4 -6 9 -11 9 -21 1 -9 -7 -15 -8 -19 -1 -4 6 -14 7
-24 4 -14 -6 -15 -4 -4 9 11 13 11 18 0 24 -19 12 -39 14 -32 3 3 -5 10 -6 16
-3 7 4 8 2 4 -4 -10 -16 -12 -15 -37 11 -12 12 -19 16 -15 10 10 -18 -2 -16
-20 2 -8 8 -21 12 -29 9 -8 -4 -15 -1 -15 5 0 6 -5 11 -11 11 -8 0 -8 -5 1
-15 7 -8 18 -14 24 -13 6 2 11 -2 11 -7 0 -6 -4 -8 -10 -6 -5 2 -15 4 -22 4
-7 0 -11 5 -10 11 1 6 -7 10 -18 9 -11 -1 -14 0 -8 3 9 4 10 11 3 23 -8 16
-24 18 -110 19 -93 1 -99 -1 -90 -17z m180 -21 c0 -5 -2 -10 -4 -10 -3 0 -8 5
-11 10 -3 6 -1 10 4 10 6 0 11 -4 11 -10z m-220 -106 c0 -2 -7 -4 -15 -4 -8 0
-15 4 -15 10 0 5 7 7 15 4 8 -4 15 -8 15 -10z m-5 -64 c18 -35 19 -40 3 -40
-6 0 -9 3 -5 6 3 4 0 19 -9 35 -8 16 -12 29 -10 29 3 0 12 -13 21 -30z m766
-107 c11 -15 11 -16 0 -6 -7 6 -21 9 -30 6 -14 -4 -14 -3 -1 6 8 6 16 11 16
11 1 0 8 -8 15 -17z m-320 -26 c-10 -9 -11 -8 -5 6 3 10 9 15 12 12 3 -3 0
-11 -7 -18z m364 -6 c3 -5 2 -12 -3 -15 -5 -3 -9 1 -9 9 0 17 3 19 12 6z m49
-49 c3 -5 -1 -9 -9 -9 -8 0 -12 4 -9 9 3 4 7 8 9 8 2 0 6 -4 9 -8z m-249 -32
c3 -6 -1 -7 -9 -4 -18 7 -21 14 -7 14 6 0 13 -4 16 -10z m-375 -130 c0 -5 -2
-10 -4 -10 -3 0 -8 5 -11 10 -3 6 -1 10 4 10 6 0 11 -4 11 -10z m-217 -176
c-7 -3 -9 -12 -6 -20 3 -8 1 -14 -5 -14 -8 0 -9 16 -3 38 1 1 7 2 14 1 9 0 9
-2 0 -5z m217 -64 c0 -5 -2 -10 -4 -10 -3 0 -8 5 -11 10 -3 6 -1 10 4 10 6 0
11 -4 11 -10z m944 -146 c3 -8 2 -12 -4 -9 -6 3 -10 10 -10 16 0 14 7 11 14
-7z m-1161 -30 c-7 -3 -9 -12 -6 -20 3 -8 1 -14 -5 -14 -8 0 -9 16 -3 38 1 1
7 2 14 1 9 0 9 -2 0 -5z m-4 -70 c-9 -11 -8 -18 2 -31 8 -9 9 -14 2 -10 -6 4
-13 4 -16 0 -2 -5 -3 -3 -1 3 1 6 -2 17 -6 25 -10 15 7 42 22 33 5 -3 4 -12
-3 -20z m1131 -128 c0 -11 -19 -15 -25 -6 -3 5 1 10 9 10 9 0 16 -2 16 -4z
m-910 -80 c0 -3 -4 -8 -10 -11 -5 -3 -10 -1 -10 4 0 6 5 11 10 11 6 0 10 -2
10 -4z m-65 -455 c3 -5 2 -12 -3 -15 -5 -3 -9 1 -9 9 0 17 3 19 12 6z"/>
<path d="M1345 2629 c4 -6 -1 -17 -11 -25 -18 -14 -18 -14 3 -4 30 14 36 27
17 34 -9 3 -12 2 -9 -5z"/>
<path d="M910 2281 c0 -6 4 -11 9 -11 5 0 12 -7 15 -16 5 -14 4 -15 -9 -4 -9
8 -15 8 -15 2 0 -11 -38 -28 -52 -24 -5 1 -8 -3 -8 -10 0 -6 -7 -3 -15 8 -14
19 -14 19 -15 -1 0 -11 -4 -16 -8 -10 -9 14 -55 11 -60 -4 -3 -9 -8 -8 -20 1
-10 8 -13 8 -9 1 4 -6 2 -22 -3 -35 -10 -22 -10 -22 -6 -1 3 20 1 21 -15 12
-10 -5 -19 -12 -19 -15 0 -3 5 -2 12 2 7 4 8 3 4 -5 -6 -9 -11 -9 -22 0 -12 9
-13 9 -9 -3 4 -9 0 -15 -10 -15 -8 0 -15 5 -16 11 0 6 -5 0 -10 -13 -7 -18
-12 -21 -23 -12 -10 9 -16 8 -26 -4 -7 -8 -17 -12 -23 -8 -6 3 -7 1 -3 -6 4
-6 11 -9 16 -6 5 3 12 0 16 -6 4 -7 3 -9 -4 -5 -6 3 -14 1 -18 -5 -4 -8 -9 -7
-15 2 -6 10 -9 11 -9 2 0 -13 -35 -53 -45 -53 -3 0 -12 0 -20 0 -8 0 -15 -5
-15 -11 0 -5 6 -7 13 -3 6 4 8 3 4 -1 -12 -14 -38 -15 -30 -2 3 7 -3 3 -16 -7
-12 -11 -19 -26 -16 -34 3 -8 -3 -16 -15 -19 -11 -3 -20 -10 -20 -15 0 -5 -5
-6 -10 -3 -6 4 -7 11 -4 17 5 7 2 8 -5 4 -7 -5 -10 -14 -7 -22 3 -8 1 -14 -4
-14 -5 0 -6 -8 -3 -17 6 -16 5 -16 -10 -4 -15 12 -17 12 -11 -4 5 -13 4 -16
-4 -11 -7 4 -12 1 -12 -8 0 -9 -5 -16 -11 -16 -5 0 -7 5 -3 12 4 7 3 8 -5 4
-9 -6 -9 -11 0 -22 10 -12 10 -14 -1 -12 -7 2 -15 -3 -18 -11 -3 -10 0 -11 9
-6 8 5 -1 -7 -18 -25 -18 -19 -34 -37 -34 -42 -3 -19 -5 -24 -12 -36 -5 -7
-13 -10 -18 -7 -5 4 -9 1 -9 -5 0 -6 -5 -8 -12 -4 -9 5 -8 2 1 -9 12 -15 12
-17 -4 -11 -13 5 -16 4 -11 -4 4 -7 2 -12 -3 -12 -6 0 -11 -5 -11 -11 0 -5 6
-7 13 -4 6 4 4 0 -5 -8 -20 -16 -25 -32 -7 -21 8 4 8 0 0 -15 -7 -11 -14 -21
-17 -21 -3 0 -2 5 2 12 4 7 3 8 -4 4 -9 -5 -9 -13 -2 -26 8 -16 8 -18 -5 -14
-8 4 -15 11 -15 17 0 6 -3 7 -6 4 -4 -4 -1 -13 6 -22 9 -11 9 -15 1 -15 -7 0
-9 -5 -5 -12 5 -7 2 -9 -8 -6 -8 4 -15 0 -15 -8 0 -7 4 -11 8 -9 4 3 10 -2 13
-11 3 -8 2 -12 -4 -9 -6 4 -10 -7 -10 -24 0 -16 -5 -33 -12 -37 -7 -5 -5 -11
7 -21 11 -7 13 -13 6 -13 -7 0 -9 -5 -5 -12 4 -6 3 -8 -4 -4 -6 3 -13 2 -17
-4 -3 -5 -12 -10 -18 -10 -8 1 -7 5 3 13 18 14 24 37 10 37 -6 0 -10 -7 -10
-16 0 -8 -4 -13 -8 -10 -11 7 -9 -35 2 -53 6 -10 5 -12 -2 -7 -9 5 -12 -49
-12 -213 0 -170 3 -221 13 -221 9 0 9 -2 0 -8 -7 -4 -11 -18 -8 -31 6 -31 11
-35 19 -16 3 9 2 14 -2 11 -5 -3 -9 1 -9 9 0 11 4 12 13 4 7 -6 10 -18 8 -27
-5 -15 -4 -15 9 1 13 16 15 16 21 2 3 -9 2 -13 -3 -10 -5 3 -12 1 -16 -5 -3
-6 0 -13 8 -16 7 -2 14 -11 14 -20 0 -10 -5 -9 -19 6 -10 11 -22 20 -25 20 -7
0 26 -40 42 -52 6 -4 1 -8 -10 -9 -17 -1 -16 -2 5 -9 14 -4 19 -8 13 -9 -7 -1
-13 -6 -13 -12 0 -5 4 -7 10 -4 5 3 10 2 10 -4 0 -5 -6 -11 -12 -14 -9 -3 -4
-13 13 -30 15 -14 30 -23 35 -19 4 4 4 1 0 -6 -6 -10 -11 -10 -22 -1 -12 10
-13 9 -8 -5 6 -15 18 -21 39 -16 5 1 7 -2 3 -5 -4 -4 -2 -17 4 -29 l11 -21
-24 20 -24 20 15 -20 c8 -11 20 -23 25 -27 7 -5 7 -8 0 -8 -5 -1 4 -8 20 -16
17 -8 22 -12 13 -10 -10 3 -20 0 -24 -6 -4 -7 -3 -8 4 -4 7 4 12 2 12 -4 0 -6
5 -8 10 -5 6 3 10 1 10 -5 0 -6 9 -20 20 -32 13 -14 17 -25 10 -33 -7 -8 -5
-12 5 -12 8 0 15 5 15 10 0 6 3 7 6 4 4 -4 1 -13 -6 -22 -11 -13 -10 -14 4 -9
21 8 34 -25 15 -37 -8 -5 -9 -9 -4 -9 6 0 17 6 24 13 10 8 12 8 7 0 -3 -6 -2
-14 4 -18 6 -4 7 -11 4 -17 -4 -5 4 -4 17 3 21 11 23 11 11 -3 -10 -13 -10
-17 3 -22 8 -3 20 -17 25 -31 6 -15 14 -23 20 -20 5 3 18 1 27 -5 16 -10 16
-11 -2 -6 -17 5 -16 4 4 -13 18 -14 21 -20 10 -25 -8 -3 -4 -3 8 0 30 7 66
-16 51 -33 -8 -11 -7 -12 7 -7 13 5 16 4 11 -4 -9 -15 6 -16 20 -2 7 7 17 5
30 -6 18 -15 18 -15 -3 -4 -19 9 -23 8 -23 -5 0 -8 3 -14 8 -14 27 5 44 -2 38
-17 -3 -8 -2 -12 4 -9 6 3 10 2 10 -4 0 -6 7 -7 17 -4 11 5 14 3 8 -6 -6 -11
-3 -11 16 0 23 12 23 11 9 -6 -14 -17 -13 -18 3 -12 41 17 52 19 38 9 -9 -7
-10 -12 -2 -16 6 -4 8 -12 5 -18 -4 -7 -2 -8 5 -4 6 4 9 12 6 17 -4 5 -1 9 6
9 6 0 9 -8 7 -18 -6 -21 18 -26 40 -9 9 7 11 6 6 -8 -6 -15 -4 -16 15 -6 17
10 22 9 27 -4 6 -14 8 -14 20 2 11 15 13 15 8 2 -3 -10 1 -19 10 -22 9 -4 15
-3 13 1 -1 4 3 8 8 9 6 1 9 -6 7 -14 -3 -14 0 -14 23 1 15 10 24 12 20 5 -6
-9 -3 -10 11 -5 16 6 16 5 -3 -13 -24 -23 -38 -28 -27 -9 4 7 3 8 -4 4 -7 -4
-12 -11 -12 -16 0 -4 129 -8 286 -8 l285 0 -16 25 c-10 14 -12 22 -6 19 6 -4
11 -2 11 3 0 6 4 11 9 11 6 0 8 -9 6 -19 -2 -11 2 -24 9 -30 10 -9 12 -3 11
23 -2 28 0 33 14 28 9 -3 19 -10 23 -16 5 -7 8 -4 8 7 0 10 5 15 10 12 6 -3
10 -1 10 4 0 6 4 11 10 11 5 0 7 -8 4 -17 -5 -17 -5 -17 9 0 14 17 33 25 24
10 -3 -5 5 -8 18 -8 14 0 21 5 18 12 -3 7 -10 10 -16 6 -6 -3 -7 -1 -3 6 4 6
10 9 14 7 8 -4 33 20 27 26 -3 2 6 4 18 5 12 1 32 4 45 7 15 3 20 1 16 -6 -4
-7 -3 -8 4 -4 7 4 12 17 12 29 0 20 0 20 15 1 14 -19 14 -18 10 3 -2 13 3 24
12 27 11 5 13 2 9 -9 -3 -9 -2 -13 4 -10 6 3 10 13 10 22 0 12 3 13 15 3 12
-10 14 -8 10 9 -2 11 1 24 7 27 7 5 8 2 3 -6 -5 -8 -3 -11 6 -8 8 3 13 10 12
16 -1 5 5 16 14 24 10 8 14 8 10 1 -5 -8 -1 -11 12 -10 14 1 17 5 11 13 -14
16 0 25 21 13 15 -8 17 -6 12 7 -4 12 -3 15 5 10 8 -5 10 -2 6 8 -4 9 1 18 10
22 9 3 16 13 16 21 0 8 4 12 10 8 5 -3 7 -13 4 -23 -2 -9 1 -7 7 5 7 13 16 23
21 23 5 0 6 5 3 10 -3 6 -1 10 4 10 6 0 11 4 11 10 0 5 -8 7 -17 4 -14 -4 -13
-2 2 7 11 7 26 14 34 15 24 4 37 35 31 74 -1 10 3 9 14 -5 15 -19 16 -19 9 -1
-5 15 -3 17 8 11 12 -7 12 -6 1 7 -10 13 -10 17 3 22 11 4 14 2 9 -6 -4 -7 -3
-8 4 -4 6 4 8 14 5 23 -4 10 -2 14 4 10 6 -4 14 0 17 9 4 9 2 13 -5 8 -7 -4
-10 -1 -7 7 3 8 11 13 17 11 6 -1 11 3 11 9 0 5 5 7 11 3 7 -4 6 2 -2 17 -12
23 -11 23 6 9 17 -14 17 -14 7 6 -9 17 -7 24 9 38 16 13 18 20 9 31 -9 11 -9
18 0 32 10 15 11 15 6 1 -2 -9 1 -22 9 -28 11 -9 12 -7 8 11 -5 17 -3 20 8 14
8 -5 7 0 -4 12 -14 16 -15 20 -2 20 8 0 15 -5 15 -10 0 -6 3 -7 6 -4 4 4 2 13
-5 21 -9 11 -8 17 3 29 8 8 13 17 10 20 -3 3 -1 14 5 25 7 13 7 23 -2 32 -10
10 -8 12 8 6 11 -4 16 -4 12 0 -4 4 -1 14 6 23 11 14 10 15 -7 1 -13 -10 -17
-11 -12 -2 4 7 2 20 -6 29 -11 14 -11 16 1 9 10 -7 12 -3 6 14 -6 20 -5 21 8
9 9 -9 12 -18 6 -25 -5 -7 -3 -11 6 -11 8 0 12 4 9 8 -2 4 2 9 8 12 10 3 10 7
1 17 -6 7 -10 18 -9 24 2 6 1 8 -1 4 -3 -5 -9 -8 -15 -8 -6 0 -5 7 3 16 10 12
10 17 0 23 -10 6 -9 10 4 14 9 4 13 3 10 -2 -3 -5 -2 -12 3 -15 4 -2 9 4 9 15
1 11 -5 23 -13 26 -7 3 -11 9 -8 15 3 5 11 5 19 -2 11 -9 12 -7 8 9 -3 12 -10
18 -15 15 -6 -4 -2 6 8 22 15 24 16 27 2 16 -14 -11 -16 -10 -14 12 1 20 4 22
15 13 12 -10 13 -9 4 8 -6 11 -8 26 -5 34 3 9 0 11 -9 6 -8 -5 -5 2 6 15 l20
23 -25 -13 c-24 -13 -24 -12 -10 5 8 10 14 27 12 38 -3 13 0 17 9 12 8 -5 10
-4 5 4 -6 9 -11 9 -21 1 -10 -8 -15 -8 -21 1 -4 7 -3 9 4 5 15 -9 21 15 9 38
-7 15 -6 18 5 13 8 -3 15 0 15 7 0 8 -10 11 -25 8 -22 -4 -23 -3 -13 17 10 18
9 21 -6 22 -16 0 -16 1 1 8 19 7 18 8 -5 14 -22 7 -23 8 -6 21 16 12 16 14 2
20 -9 3 -13 11 -9 17 3 6 0 15 -7 20 -10 6 -11 9 -1 9 6 0 12 5 12 11 0 5 -4
8 -9 5 -5 -3 -11 0 -14 7 -7 20 -7 27 0 25 5 -2 7 -6 6 -10 -2 -5 2 -8 7 -8 6
0 10 4 10 9 0 12 -26 32 -36 29 -5 -2 -11 2 -12 7 -2 6 -8 18 -14 29 -8 14 -7
17 4 11 7 -5 10 -5 6 0 -4 4 -2 15 5 23 9 13 9 14 0 8 -7 -4 -14 -2 -14 3 -1
6 -2 16 -3 22 0 6 -12 18 -26 27 l-25 14 25 -22 c23 -20 10 -18 -18 3 -9 7 -9
13 -1 23 13 16 -25 59 -43 48 -7 -4 -8 -3 -4 5 4 6 13 9 19 5 7 -3 4 1 -5 9
-10 8 -14 18 -10 22 4 5 -1 5 -10 2 -16 -6 -43 15 -33 25 3 3 -1 11 -10 18 -8
7 -15 21 -15 31 0 11 -5 19 -11 19 -5 0 -7 -5 -3 -12 4 -7 3 -8 -4 -4 -6 4 -9
13 -5 21 3 9 -1 15 -11 15 -10 0 -13 6 -10 15 4 10 0 15 -11 15 -10 0 -13 4
-9 13 6 9 4 9 -8 -1 -13 -10 -17 -10 -22 3 -3 9 -2 14 2 11 5 -3 9 1 9 8 0 7
-10 12 -21 11 -24 -3 -56 22 -56 42 0 7 -5 13 -11 13 -5 0 -7 5 -3 12 4 7 3 8
-5 4 -9 -6 -9 -11 0 -22 10 -12 9 -13 -5 -8 -11 4 -16 14 -13 25 4 16 2 17
-14 8 -18 -9 -23 -5 -20 15 1 5 -6 6 -15 2 -14 -5 -15 -4 -4 9 8 9 8 15 2 15
-6 0 -13 -4 -17 -9 -8 -14 -44 -9 -38 5 2 7 0 15 -6 19 -7 4 -8 0 -5 -10 4 -9
3 -15 -2 -14 -15 3 -44 -12 -44 -24 0 -5 9 -2 20 8 11 10 20 14 20 9 0 -5 -9
-15 -20 -22 -12 -7 -18 -18 -14 -24 4 -6 3 -8 -3 -5 -6 4 -14 0 -17 -9 -9 -24
-7 -31 4 -14 8 12 10 8 11 -15 1 -16 1 -37 0 -45 0 -10 1 -11 5 -2 8 17 37 15
31 -2 -4 -11 -1 -13 10 -9 11 4 14 2 9 -5 -4 -7 -2 -12 4 -12 6 0 8 -5 4 -12
-5 -9 -2 -8 9 1 15 12 17 12 11 -4 -5 -13 -4 -16 4 -11 7 4 12 2 12 -3 0 -6 5
-11 11 -11 5 0 7 5 3 12 -4 7 -3 8 5 4 9 -6 9 -11 -1 -24 -11 -13 -10 -14 9
-4 19 10 20 9 16 -8 -3 -11 0 -21 6 -21 6 -1 16 -3 21 -4 6 -1 15 -3 20 -4 6
0 10 -10 10 -22 0 -11 6 -27 14 -35 17 -17 30 -19 20 -2 -4 7 -3 8 4 4 6 -4 8
-14 5 -23 -5 -12 -3 -14 7 -8 10 6 12 3 8 -13 -4 -12 -3 -20 2 -17 4 3 11 -2
14 -11 3 -9 12 -14 20 -11 9 4 12 0 9 -12 -3 -11 2 -21 11 -24 8 -3 20 -16 26
-29 11 -22 10 -22 -10 2 l-21 25 12 -25 c8 -14 14 -27 15 -30 4 -20 18 -40 27
-40 5 0 2 9 -8 20 -10 11 -13 20 -7 20 7 0 12 -5 12 -11 0 -5 4 -8 9 -5 11 7
9 -13 -3 -33 -6 -9 -5 -12 1 -8 6 4 17 -1 24 -10 10 -12 10 -14 2 -9 -8 4 -13
1 -13 -9 0 -9 4 -13 10 -10 5 3 10 -3 10 -14 0 -12 8 -30 18 -41 9 -11 15 -23
14 -27 -2 -3 2 -10 10 -15 10 -8 10 -9 -2 -5 -8 2 -14 10 -12 16 1 7 -2 9 -9
5 -7 -4 -9 -3 -5 4 3 6 2 13 -3 16 -5 4 -8 0 -7 -6 6 -28 19 -48 35 -53 15 -5
27 -65 12 -65 -4 0 -7 -9 -7 -19 0 -16 3 -18 15 -8 11 9 11 4 -3 -17 -10 -16
-13 -25 -7 -22 6 4 11 0 11 -9 0 -9 5 -13 11 -10 6 4 5 -2 -2 -13 -7 -12 -17
-18 -22 -15 -5 3 -4 -4 2 -15 14 -27 14 -35 -1 -26 -7 4 -8 3 -4 -4 4 -6 12
-9 20 -6 7 3 13 -2 13 -10 0 -8 -5 -12 -11 -10 -7 3 -11 -15 -10 -51 0 -30 -3
-55 -8 -55 -5 0 -2 -7 6 -16 17 -17 20 -25 9 -23 -20 3 -26 -2 -13 -11 13 -9
13 -10 0 -10 -13 0 -13 -1 0 -10 13 -9 13 -11 0 -20 -11 -7 -11 -10 -2 -10 7
0 10 -5 7 -10 -4 -6 -10 -8 -14 -5 -5 2 -7 -7 -5 -22 1 -14 8 -29 14 -33 8 -5
7 -9 -5 -13 -9 -4 -13 -3 -10 2 3 5 1 12 -4 15 -6 4 -8 -11 -7 -35 2 -22 1
-37 -3 -32 -15 20 -26 8 -25 -28 1 -21 -2 -36 -7 -33 -5 3 -9 0 -9 -6 0 -6 -5
-8 -12 -4 -7 4 -8 3 -4 -4 4 -6 14 -8 23 -5 11 4 14 3 9 -5 -4 -7 -14 -12 -22
-12 -8 0 -14 -7 -12 -15 2 -8 -10 -27 -27 -41 -16 -14 -24 -23 -17 -19 18 9
15 -6 -6 -22 -9 -8 -11 -12 -4 -8 20 10 14 -11 -10 -31 -14 -11 -18 -13 -10
-3 9 12 9 16 -2 16 -8 0 -13 -11 -12 -26 1 -19 -4 -26 -16 -25 -14 1 -15 -2
-8 -16 8 -15 6 -17 -12 -12 -17 4 -20 2 -15 -13 6 -13 3 -16 -8 -11 -9 3 -13
2 -10 -4 3 -6 -1 -20 -9 -32 -9 -12 -16 -18 -16 -12 0 5 5 15 12 22 7 7 9 12
4 12 -12 0 -31 -24 -31 -40 0 -9 -7 -14 -19 -12 -17 3 -18 2 -7 -12 12 -14 11
-16 -4 -10 -13 5 -16 4 -11 -4 5 -8 1 -10 -10 -5 -13 5 -16 3 -11 -10 4 -12 2
-14 -10 -10 -12 5 -14 3 -8 -8 8 -12 6 -12 -8 -1 -14 12 -16 11 -12 -7 2 -13
-3 -25 -16 -31 -13 -8 -19 -7 -19 0 0 8 -6 8 -20 0 -11 -6 -26 -8 -32 -4 -6 4
-8 3 -4 -4 3 -6 1 -14 -5 -17 -5 -4 -8 -14 -5 -22 3 -8 1 -11 -4 -8 -6 3 -10
0 -10 -7 0 -10 -3 -9 -9 1 -8 12 -12 12 -25 2 -13 -11 -19 -11 -33 0 -15 13
-15 12 -5 -7 8 -16 8 -21 -1 -21 -7 0 -21 -4 -31 -9 -15 -5 -17 -4 -11 6 5 9
4 11 -3 6 -7 -4 -12 -13 -12 -21 0 -7 -7 -16 -16 -19 -11 -4 -15 -2 -11 7 3 8
-1 14 -8 14 -7 0 -12 -8 -10 -18 3 -14 -2 -16 -23 -12 -50 9 -71 10 -67 3 3
-4 -5 -16 -18 -26 -12 -10 -16 -12 -9 -4 6 8 12 21 11 29 0 11 -2 12 -6 3 -2
-6 -9 -10 -13 -7 -5 3 -12 0 -16 -6 -4 -8 -3 -9 4 -5 8 5 10 1 5 -10 -4 -11
-8 -13 -11 -6 -2 7 -8 9 -14 6 -33 -20 -116 -5 -101 19 4 7 -2 5 -13 -3 -29
-22 -30 -24 -11 -17 9 4 17 2 17 -3 0 -18 -27 -10 -44 12 -16 22 -16 22 -6 2
7 -16 6 -25 -4 -33 -10 -9 -16 -9 -21 -1 -4 6 -3 9 2 8 4 -2 8 2 8 7 0 6 -4 8
-10 6 -37 -14 -75 -6 -75 17 0 8 -3 12 -6 9 -4 -3 -15 -2 -25 4 -15 7 -17 6
-13 -6 3 -8 10 -13 14 -10 5 3 11 1 14 -4 7 -10 -19 -9 -30 1 -3 4 -13 4 -22
1 -13 -4 -14 -3 -4 5 11 7 9 10 -7 15 -12 3 -21 0 -21 -5 0 -6 -10 -3 -22 8
-18 16 -21 17 -15 2 4 -12 2 -15 -9 -11 -7 3 -14 10 -14 15 0 6 -6 6 -14 -1
-11 -9 -16 -9 -21 0 -6 8 -10 7 -17 -2 -8 -11 -9 -10 -4 3 6 20 -27 43 -47 32
-9 -6 -8 -3 1 8 9 11 10 18 2 23 -5 3 -13 -1 -16 -9 -3 -9 -10 -13 -15 -10 -5
3 -7 9 -4 14 3 4 -2 10 -10 13 -10 4 -12 1 -8 -10 5 -12 2 -12 -15 3 -23 19
-29 30 -12 19 6 -4 7 1 3 11 -4 11 -8 13 -11 6 -2 -7 -8 -12 -14 -12 -6 0 -8
7 -5 15 4 8 1 17 -5 21 -7 4 -8 3 -4 -4 10 -17 -15 -14 -38 3 -10 8 -22 12
-27 10 -4 -3 -5 5 -1 17 4 18 2 20 -16 16 -23 -7 -30 6 -9 16 6 4 2 4 -10 2
-15 -3 -23 1 -23 10 0 8 -7 14 -15 14 -8 0 -15 5 -15 11 0 5 5 7 12 3 7 -4 8
-3 4 5 -4 6 -12 9 -17 6 -5 -4 -9 -1 -9 5 0 6 -4 8 -10 5 -5 -3 -10 -1 -10 5
0 6 -5 8 -10 5 -6 -3 -10 1 -10 10 0 9 4 13 10 10 6 -3 10 -2 10 4 0 5 -13 8
-29 6 -24 -3 -28 0 -24 15 3 10 -1 21 -8 25 -8 6 -10 4 -4 -5 5 -9 4 -11 -4
-6 -9 6 -9 11 -1 21 7 9 6 16 -7 26 -11 9 -14 10 -9 2 4 -7 2 -13 -3 -13 -6 0
-11 7 -11 16 0 8 -4 13 -9 10 -5 -3 -12 1 -15 10 -3 8 -2 12 3 9 5 -3 13 -1
16 5 4 6 3 10 -2 9 -17 -3 -33 1 -32 9 3 20 -2 33 -11 27 -6 -4 -9 -1 -8 7 2
7 -3 12 -10 10 -9 -2 -11 2 -6 10 12 19 14 39 3 32 -5 -3 -6 -11 -3 -17 5 -8
3 -8 -6 0 -21 19 -22 46 -2 38 14 -5 14 -4 -1 13 -9 10 -17 26 -17 35 0 9 -5
17 -11 17 -5 0 -7 -4 -4 -10 10 -16 -1 -11 -16 7 -9 11 -10 14 -2 9 9 -5 12 0
11 18 -1 13 -6 22 -10 20 -5 -3 -6 -10 -3 -15 3 -5 -1 -6 -10 -2 -10 3 -13 8
-6 12 13 8 10 51 -3 51 -6 0 -5 5 1 11 9 9 8 18 -4 35 -8 13 -12 24 -8 24 4 0
2 7 -5 15 -7 8 -9 15 -4 15 5 0 2 5 -6 10 -10 6 -11 10 -2 10 6 0 12 5 12 11
0 5 -4 8 -8 5 -5 -3 -9 1 -9 9 0 8 4 12 8 10 4 -3 10 2 13 11 9 23 7 34 -4 34
-5 0 -7 -8 -3 -17 3 -10 3 -15 -2 -11 -4 4 -9 25 -11 45 -2 21 -5 53 -7 70 -3
20 -1 30 5 27 6 -4 8 2 4 14 -4 11 -2 23 3 27 6 3 8 0 5 -8 -3 -8 3 -20 13
-27 15 -12 16 -12 5 0 -14 16 -16 34 -4 26 5 -3 9 1 9 9 0 8 -5 13 -11 12 -6
-1 -11 15 -12 35 0 20 3 35 7 33 4 -3 6 -16 5 -29 -2 -17 1 -23 11 -19 9 4 10
9 4 17 -15 18 -15 20 -2 44 7 14 8 22 1 22 -5 0 -10 -5 -10 -12 0 -6 -3 -8 -7
-5 -3 4 2 15 11 26 17 18 17 20 -1 31 -16 10 -16 11 0 6 12 -4 17 0 17 13 0
11 6 22 13 25 6 3 1 4 -13 1 -14 -3 -19 -2 -12 1 6 3 10 10 6 15 -3 5 -2 9 3
8 20 -3 27 2 13 11 -12 7 -12 12 4 29 10 11 15 24 12 29 -3 5 1 15 9 22 12 10
13 8 10 -9 -2 -12 -6 -25 -10 -30 -3 -5 -2 -12 3 -15 10 -6 12 2 15 60 1 28 6
40 15 37 6 -3 12 0 12 7 0 6 5 8 12 4 7 -4 8 -3 4 4 -4 6 -12 10 -19 8 -7 -1
-9 -1 -4 1 4 3 5 9 2 14 -4 5 1 6 9 3 12 -5 16 0 16 17 0 20 2 21 11 9 8 -12
10 -8 6 17 -3 28 -1 31 12 20 12 -10 14 -8 9 11 -6 20 -4 22 10 10 12 -10 14
-10 8 0 -7 11 5 17 27 13 4 -1 3 8 -4 20 -10 20 -9 21 10 16 18 -4 19 -2 11
13 -7 13 -7 21 0 25 5 3 10 3 10 0 0 -3 11 6 24 20 13 14 29 24 36 23 7 -2 15
4 17 12 4 12 3 12 -5 2 -8 -11 -10 -11 -15 1 -4 10 2 14 21 13 19 -1 26 4 24
15 -1 9 5 16 13 16 8 0 15 -5 15 -10 0 -6 3 -7 6 -4 4 4 1 13 -6 22 -11 13
-10 15 2 10 8 -3 24 2 34 12 11 10 14 14 7 9 -8 -5 -13 -4 -13 2 0 15 22 20
47 11 17 -6 21 -5 16 7 -6 17 35 66 49 58 4 -3 5 -11 1 -17 -4 -7 0 -7 10 1 9
8 21 11 26 7 6 -3 8 0 5 8 -3 8 0 18 7 23 7 4 10 3 6 -3 -4 -6 0 -14 8 -17 10
-3 19 3 26 17 10 23 49 54 49 39 0 -4 -9 -13 -20 -20 -11 -7 -20 -18 -19 -25
0 -9 2 -9 6 1 2 6 10 9 15 6 6 -4 8 -2 5 3 -9 15 18 24 31 11 6 -6 12 -6 17 3
5 7 4 10 -2 6 -6 -4 -13 0 -17 8 -3 8 0 17 6 21 7 4 8 3 4 -4 -4 -7 -1 -12 9
-12 9 0 14 4 10 9 -3 6 4 8 16 6 13 -3 26 -10 31 -17 5 -9 8 -9 8 -1 0 6 11
10 25 9 20 -3 23 0 15 14 -8 16 -5 17 26 13 23 -3 34 -1 30 5 -4 7 5 6 23 -1
17 -6 28 -14 25 -18 -2 -4 0 -10 5 -13 6 -4 8 7 6 26 -3 26 -2 29 6 15 6 -9
15 -15 20 -12 5 4 7 10 4 15 -3 5 0 12 6 16 7 4 9 3 6 -3 -4 -6 2 -13 14 -16
16 -4 18 -3 9 8 -8 10 -4 14 17 20 20 5 24 8 13 15 -8 5 -18 6 -22 4 -4 -3 -5
2 -1 11 3 9 9 13 12 8 18 -25 34 4 21 37 -1 3 -2 8 -1 13 0 4 -6 7 -15 7 -13
0 -14 -3 -5 -14 9 -11 9 -16 0 -22 -7 -4 -9 -3 -5 4 3 6 2 14 -4 17 -8 5 -7
12 2 23 8 10 9 13 1 9 -6 -4 -18 0 -26 8 -18 17 -31 20 -21 4 4 -7 -1 -7 -16
1 -15 8 -20 8 -16 1 4 -6 2 -11 -3 -11 -6 0 -11 5 -11 12 0 7 -7 5 -18 -5 -12
-11 -22 -13 -32 -7 -20 13 -33 13 -25 0 3 -6 -1 -7 -9 -4 -9 3 -13 11 -10 18
3 6 -1 3 -9 -6 -8 -10 -20 -18 -28 -18 -11 0 -11 2 1 11 12 9 12 10 -4 5 -10
-4 -25 -1 -32 5 -10 8 -14 8 -14 0z m-310 -151 c0 -5 -5 -10 -11 -10 -5 0 -7
5 -4 10 3 6 8 10 11 10 2 0 4 -4 4 -10z m1534 -396 c5 -14 4 -15 -9 -4 -17 14
-19 20 -6 20 5 0 12 -7 15 -16z m-2059 -354 c-3 -5 -12 -10 -18 -10 -7 0 -6 4
3 10 19 12 23 12 15 0z m2072 -185 c0 -8 -4 -12 -9 -9 -4 3 -8 9 -8 15 0 5 4
9 8 9 5 0 9 -7 9 -15z m-1 -150 c0 -28 -8 -24 -13 5 -2 11 1 20 5 20 4 0 8
-11 8 -25z m-2076 -130 c0 -5 -5 -3 -10 5 -5 8 -10 20 -10 25 0 6 5 3 10 -5 5
-8 10 -19 10 -25z m1981 -488 c-10 -9 -11 -8 -5 6 3 10 9 15 12 12 3 -3 0 -11
-7 -18z m-1664 -119 c-3 -8 -6 -5 -6 6 -1 11 2 17 5 13 3 -3 4 -12 1 -19z
m1302 -2 c-2 -2 -15 -9 -29 -15 -24 -11 -24 -11 -6 3 16 13 49 24 35 12z
m-1079 -146 c0 -5 -5 -10 -11 -10 -5 0 -7 5 -4 10 3 6 8 10 11 10 2 0 4 -4 4
-10z m760 -140 c0 -5 -2 -10 -4 -10 -3 0 -8 5 -11 10 -3 6 -1 10 4 10 6 0 11
-4 11 -10z"/>
<path d="M1050 2279 c0 -5 5 -7 10 -4 6 3 10 8 10 11 0 2 -4 4 -10 4 -5 0 -10
-5 -10 -11z"/>
<path d="M890 2261 c0 -7 -4 -10 -9 -7 -4 3 -16 0 -26 -8 -15 -11 -16 -13 -1
-13 9 0 16 4 16 9 0 5 4 7 9 3 11 -6 26 13 17 22 -3 4 -6 1 -6 -6z"/>
<path d="M1555 2220 c-3 -5 -1 -10 4 -10 6 0 11 5 11 10 0 6 -2 10 -4 10 -3 0
-8 -4 -11 -10z"/>
<path d="M2280 2151 c0 -6 4 -13 10 -16 6 -3 7 1 4 9 -7 18 -14 21 -14 7z"/>
<path d="M1007 2099 c7 -7 15 -10 18 -7 3 3 -2 9 -12 12 -14 6 -15 5 -6 -5z"/>
<path d="M1053 2095 c0 -8 4 -12 9 -9 4 3 8 9 8 15 0 5 -4 9 -8 9 -5 0 -9 -7
-9 -15z"/>
<path d="M1145 2100 c3 -5 8 -10 11 -10 2 0 4 5 4 10 0 6 -5 10 -11 10 -5 0
-7 -4 -4 -10z"/>
<path d="M515 2090 c-4 -6 -10 -8 -15 -5 -4 3 -11 -2 -14 -10 -4 -13 -2 -13
14 -5 18 10 36 30 26 30 -3 0 -8 -5 -11 -10z"/>
<path d="M1806 2083 c-6 -14 -5 -15 5 -6 7 7 10 15 7 18 -3 3 -9 -2 -12 -12z"/>
<path d="M1890 2022 c6 -13 14 -21 18 -18 3 4 -2 14 -12 24 -18 16 -18 16 -6
-6z"/>
<path d="M687 2000 c-19 -22 -22 -35 -7 -25 10 6 34 45 28 45 -2 0 -11 -9 -21
-20z"/>
<path d="M1555 1980 c-3 -5 -1 -10 4 -10 6 0 11 5 11 10 0 6 -2 10 -4 10 -3 0
-8 -4 -11 -10z"/>
<path d="M1085 1909 c-6 -19 -8 -19 -19 -4 -11 15 -13 15 -25 1 -11 -13 -16
-14 -29 -4 -13 10 -14 10 -8 1 4 -7 3 -13 -3 -13 -5 0 -12 6 -14 13 -3 7 -6 5
-6 -6 -1 -15 -4 -16 -22 -6 -16 8 -20 8 -14 0 4 -8 -1 -10 -18 -7 -20 3 -24 1
-20 -15 5 -16 1 -18 -26 -15 -17 2 -28 -1 -25 -5 3 -5 -4 -9 -16 -9 -14 0 -19
-4 -14 -12 5 -8 0 -7 -11 2 -11 9 -16 10 -11 3 5 -9 0 -13 -13 -13 -12 0 -21
-5 -21 -11 0 -5 6 -7 13 -3 8 5 8 2 -2 -9 -14 -18 -26 -23 -16 -8 3 5 1 12 -5
16 -5 3 -10 -3 -10 -14 0 -19 -14 -22 -36 -8 -7 4 -10 -2 -8 -19 1 -14 0 -23
-3 -20 -10 9 -33 -15 -26 -27 4 -6 1 -7 -6 -2 -9 5 -6 14 11 34 21 23 20 23
-9 -3 -18 -16 -30 -33 -27 -38 7 -11 -10 -10 -22 2 -6 6 -10 3 -11 -10 -1 -13
2 -18 10 -13 7 4 6 0 -2 -10 -7 -9 -19 -17 -25 -17 -6 0 -4 5 4 11 13 9 13 10
0 6 -9 -2 -14 -13 -12 -28 2 -17 0 -20 -6 -11 -7 11 -12 10 -26 -3 -13 -14
-14 -20 -5 -32 10 -11 10 -14 -2 -11 -8 2 -14 -4 -14 -13 0 -9 -7 -26 -16 -39
-12 -18 -17 -21 -24 -10 -6 9 -4 11 5 5 9 -6 11 -4 6 4 -8 12 -21 7 -21 -7 0
-4 -4 -13 -9 -21 -6 -9 -5 -12 2 -7 12 7 10 -20 -3 -31 -4 -4 -5 -2 -1 5 4 6
2 12 -3 12 -15 0 -14 -13 2 -29 10 -11 9 -13 -6 -8 -13 5 -16 3 -10 -6 12 -19
12 -37 1 -37 -6 0 -8 7 -4 15 4 13 2 13 -14 5 -26 -14 -34 -30 -22 -42 6 -6
12 -6 17 3 5 8 4 10 -3 5 -7 -4 -12 -3 -12 3 0 17 18 22 24 6 3 -8 1 -17 -5
-20 -5 -4 -6 -11 -3 -17 4 -6 2 -8 -4 -4 -6 3 -13 2 -17 -4 -3 -5 -1 -10 5
-10 6 0 8 -5 5 -10 -4 -6 -12 -8 -18 -4 -7 3 -3 -2 7 -10 18 -15 18 -16 2 -16
-11 0 -15 -4 -9 -12 10 -17 12 -59 2 -53 -4 3 -10 -3 -14 -13 -15 -33 -13 -40
9 -36 11 2 15 2 8 -2 -6 -3 -9 -11 -6 -16 4 -7 2 -8 -4 -4 -7 4 -12 2 -12 -3
0 -6 5 -11 10 -11 6 0 10 -5 10 -11 0 -5 -4 -7 -10 -4 -5 3 -10 2 -10 -4 0 -5
6 -12 13 -14 9 -4 9 -6 0 -6 -7 -1 -13 -6 -13 -12 0 -5 5 -7 10 -4 6 3 10 1
10 -4 0 -6 -4 -11 -10 -11 -5 0 -10 -5 -10 -11 0 -5 4 -7 10 -4 6 3 10 1 10
-4 0 -6 -6 -11 -12 -11 -9 0 -9 -3 1 -9 12 -8 13 -15 3 -38 l-12 -28 20 24
c11 13 20 19 20 14 0 -5 -6 -15 -12 -21 -10 -10 -10 -15 2 -22 13 -8 12 -10
-4 -10 -15 0 -16 -3 -7 -14 10 -11 8 -15 -6 -19 -14 -4 -13 -5 5 -6 16 -1 22
-7 22 -23 0 -19 -2 -20 -10 -8 -5 8 -10 10 -10 4 0 -6 7 -17 15 -24 9 -7 14
-19 11 -26 -3 -8 0 -11 10 -7 13 5 13 8 -2 24 -9 11 -12 19 -7 19 10 0 27 -29
23 -39 -1 -2 4 -8 12 -13 10 -8 9 -9 -4 -4 -10 3 -20 0 -24 -6 -4 -6 -3 -8 3
-5 6 4 19 -3 29 -16 16 -19 16 -20 1 -8 -15 12 -17 12 -11 -2 3 -8 12 -18 20
-21 9 -3 12 -10 9 -16 -3 -5 -1 -10 4 -10 6 0 11 -7 11 -16 0 -9 5 -12 13 -8
9 6 9 5 0 -7 -9 -11 -7 -20 9 -39 l20 -25 -16 27 c-24 40 -5 34 21 -7 18 -28
18 -33 5 -29 -14 5 -14 4 1 -6 9 -6 21 -9 26 -6 4 3 7 -6 5 -19 -1 -14 2 -23
7 -19 5 3 12 -2 15 -10 3 -9 10 -16 16 -16 5 0 6 5 2 12 -4 7 -3 8 4 4 6 -4 9
-13 6 -21 -6 -15 12 -15 36 0 9 5 8 0 -4 -13 -19 -22 -19 -22 3 -22 12 0 20
-4 17 -9 -3 -5 1 -12 10 -15 10 -4 13 -2 8 7 -6 9 -5 9 8 0 8 -7 18 -10 21 -6
4 3 7 -1 7 -9 0 -16 27 -33 44 -29 5 1 4 -4 -3 -13 -9 -11 -9 -16 0 -22 8 -4
9 -3 5 4 -5 8 1 12 14 12 12 0 19 -4 15 -9 -3 -6 6 -8 20 -5 14 2 24 1 23 -3
0 -5 2 -16 7 -26 7 -16 8 -16 20 -1 9 14 14 14 20 4 6 -9 4 -11 -5 -5 -9 5
-11 4 -6 -4 6 -9 11 -9 23 1 14 11 15 10 9 -12 -5 -18 -4 -21 3 -11 12 19 41
23 35 6 -3 -7 0 -16 7 -21 7 -4 10 -3 6 2 -3 6 -2 16 4 24 7 12 9 11 9 -5 0
-11 4 -15 8 -10 4 6 15 11 25 11 15 2 16 -1 5 -14 -11 -15 -10 -14 14 1 19 12
29 14 34 5 5 -7 3 -8 -7 -3 -12 8 -12 6 0 -8 7 -9 16 -17 19 -17 3 0 2 3 -1 7
-11 10 13 32 29 26 7 -3 12 -8 9 -12 -2 -4 2 -8 9 -8 8 0 12 7 9 16 -3 9 2 6
11 -7 17 -22 36 -22 36 1 0 7 -4 6 -10 -3 -5 -8 -10 -10 -10 -4 0 16 10 23 25
17 8 -2 11 -12 8 -21 -3 -10 -1 -13 4 -7 4 6 16 11 26 12 34 1 38 3 31 16 -6
9 -4 9 7 -1 18 -16 32 -15 26 2 -4 10 -1 13 9 9 7 -3 14 -9 14 -15 0 -5 8 -2
17 7 16 16 17 16 30 -1 7 -10 13 -12 13 -6 0 7 7 12 15 12 8 0 15 5 15 10 0 7
-6 7 -18 1 -14 -7 -19 -6 -19 4 0 7 6 11 14 8 7 -3 13 1 13 8 0 7 6 5 14 -7
14 -18 15 -18 25 9 6 15 13 27 16 27 4 0 4 -4 0 -9 -3 -6 4 -9 15 -8 11 1 20
5 20 9 0 4 8 8 18 8 9 0 23 9 30 20 7 11 23 20 36 20 13 0 29 7 36 15 7 8 17
12 24 8 6 -4 4 1 -4 12 -14 17 -13 17 10 10 23 -7 24 -7 10 10 -12 15 -12 17
-1 10 11 -6 13 -4 7 10 -6 16 -4 16 11 4 15 -12 16 -12 11 2 -5 12 -1 15 18
13 13 -1 22 3 21 9 -1 7 3 11 10 10 7 -2 10 4 6 13 -5 13 -8 13 -15 2 -8 -10
-9 -10 -5 2 2 8 11 14 19 12 10 -1 15 4 14 14 0 9 5 19 13 22 9 3 11 0 6 -8
-5 -9 -4 -11 4 -6 6 4 9 16 6 27 -5 14 -2 17 8 13 8 -3 18 0 23 7 4 7 3 10 -4
5 -6 -3 -13 -2 -17 4 -3 5 1 10 9 10 10 0 13 6 10 15 -4 8 1 17 10 21 9 3 16
14 16 23 0 11 3 12 8 4 5 -8 12 -3 19 17 6 17 8 28 4 26 -4 -3 -7 5 -6 17 1
12 9 23 18 25 18 4 19 7 21 59 1 17 5 35 10 40 5 4 6 3 3 -3 -3 -6 0 -11 7
-11 8 0 12 6 9 14 -3 7 -10 13 -17 13 -6 0 -4 5 4 11 12 8 12 12 2 16 -10 4
-9 8 5 18 15 11 15 15 4 29 -11 13 -11 16 0 16 9 1 7 6 -6 16 -19 16 -19 16 5
9 21 -7 23 -6 13 6 -6 8 -14 27 -17 43 -4 21 -2 26 9 22 9 -3 12 0 8 9 -3 8
-9 13 -13 10 -5 -3 -6 5 -2 17 4 16 2 19 -8 13 -9 -5 -11 -4 -6 3 4 7 15 12
24 12 14 0 13 2 -3 13 -12 10 -14 16 -7 21 15 9 16 26 1 26 -5 0 -7 -4 -4 -10
3 -5 1 -10 -4 -10 -15 0 -14 13 2 29 10 11 9 12 -1 6 -10 -5 -13 -1 -10 16 2
13 8 28 13 32 6 4 -3 5 -20 1 -29 -6 -29 -6 -10 11 11 9 14 14 8 10 -8 -4 -13
0 -13 10 0 9 -4 13 -10 10 -5 -3 -10 -1 -10 4 0 6 5 11 10 11 6 0 2 10 -9 21
-14 16 -18 27 -11 38 12 23 -4 46 -26 37 -17 -7 -17 -6 0 13 17 19 17 19 -3
14 -17 -4 -21 -1 -22 18 -1 13 -1 28 0 33 1 5 -5 3 -14 -4 -8 -7 -18 -10 -22
-6 -3 3 -2 6 4 6 6 0 14 8 17 17 4 10 4 14 0 11 -9 -10 -44 10 -44 25 0 7 4 6
10 -3 5 -8 10 -10 10 -4 0 19 -13 24 -28 11 -13 -10 -14 -8 -8 13 5 17 4 21
-2 11 -7 -10 -14 -11 -31 -2 -11 7 -22 9 -22 6 -1 -3 -2 -9 -3 -14 -2 -16 -16
-25 -17 -10 0 12 -20 -27 -20 -41 -1 -3 -5 -11 -11 -17 -7 -9 -6 -15 6 -19 9
-3 16 -10 16 -16 0 -5 -5 -6 -12 -2 -7 4 -8 3 -4 -4 4 -7 14 -12 22 -12 8 0
13 -3 13 -7 -4 -22 2 -33 14 -27 10 6 10 4 0 -7 -7 -7 -13 -18 -13 -23 0 -6 5
-4 10 4 7 11 10 11 10 2 0 -7 10 -17 23 -23 19 -8 18 -9 -8 -4 l-30 5 25 -14
c14 -8 29 -12 34 -9 5 4 6 1 2 -5 -3 -5 0 -13 6 -16 7 -3 2 -3 -11 0 -21 6
-22 4 -10 -9 8 -8 17 -13 21 -11 4 2 10 -1 14 -7 4 -7 3 -9 -4 -5 -6 3 -13 2
-17 -4 -3 -5 -2 -10 4 -10 6 0 8 -7 5 -15 -4 -8 1 -17 10 -21 9 -3 16 -10 16
-16 0 -5 -4 -6 -10 -3 -5 3 -10 1 -10 -4 0 -6 5 -11 11 -11 6 0 9 -7 6 -15 -4
-8 -1 -17 5 -21 6 -4 8 -3 5 3 -3 5 0 10 8 10 10 0 12 -4 5 -12 -8 -9 -6 -15
6 -19 13 -5 15 -9 6 -18 -14 -14 -16 -32 -4 -24 10 6 8 -21 -2 -46 -4 -9 -5
-22 -1 -28 3 -5 -2 -10 -12 -10 -10 0 -14 -4 -8 -8 15 -11 41 -47 29 -39 -6 4
-20 -3 -30 -14 -20 -22 -29 -59 -15 -59 6 0 8 9 6 20 -5 24 29 47 41 28 4 -7
3 -8 -4 -4 -17 10 -34 -28 -19 -44 10 -10 9 -11 -2 -5 -10 6 -13 4 -9 -7 4 -8
0 -15 -8 -15 -7 0 -10 5 -7 10 3 6 1 7 -6 3 -6 -4 -8 -13 -4 -19 10 -17 11
-47 1 -41 -13 8 -9 -10 5 -25 10 -11 8 -11 -13 -1 -22 12 -24 12 -12 -2 10
-13 9 -17 -5 -23 -10 -5 -22 -7 -26 -6 -5 1 -6 -3 -2 -9 4 -7 13 -7 28 1 21
10 21 9 -2 -10 -12 -12 -27 -18 -32 -15 -5 3 -9 -2 -9 -10 0 -10 6 -13 18 -9
14 5 13 3 -3 -10 -11 -8 -20 -21 -20 -29 0 -7 -8 -12 -17 -10 -9 1 -20 -3 -24
-9 -4 -8 -3 -9 4 -5 7 4 12 2 12 -3 0 -6 -7 -11 -16 -11 -8 0 -12 -5 -8 -11 4
-8 -1 -9 -17 -4 -23 7 -23 6 -4 -8 19 -14 18 -15 -5 -13 -19 1 -24 -4 -22 -16
2 -13 -2 -16 -14 -11 -12 4 -15 3 -10 -5 4 -7 2 -12 -4 -12 -6 0 -9 -4 -6 -9
9 -14 -20 -21 -33 -8 -8 8 -9 5 -6 -11 3 -16 0 -19 -12 -15 -12 5 -14 3 -8 -8
7 -12 6 -12 -7 -1 -14 12 -16 10 -11 -10 4 -18 3 -20 -6 -8 -7 10 -11 11 -11
3 0 -7 -5 -13 -11 -13 -5 0 -7 6 -3 12 5 9 2 9 -9 -1 -9 -7 -17 -10 -17 -6 0
4 -6 3 -12 -2 -7 -6 -21 -9 -31 -8 -9 2 -15 -1 -11 -6 3 -5 10 -6 16 -3 7 4 8
2 4 -4 -5 -9 -13 -9 -29 -1 l-22 12 20 -24 20 -23 -27 17 c-19 12 -29 14 -34
5 -4 -6 -3 -8 3 -5 6 4 13 1 16 -7 7 -18 -21 -14 -35 5 -7 11 -9 9 -5 -7 5
-24 -5 -25 -40 -6 -16 9 -24 9 -29 0 -4 -6 -3 -8 4 -4 6 3 14 1 18 -5 4 -7 3
-9 -4 -5 -6 3 -14 2 -17 -4 -5 -8 -11 -8 -19 -1 -18 15 -88 23 -80 10 4 -7 -1
-7 -15 1 -12 6 -18 16 -15 22 5 7 2 8 -5 4 -7 -5 -10 -15 -6 -25 5 -12 3 -13
-6 -4 -6 6 -18 9 -26 6 -12 -5 -14 -1 -8 18 4 17 3 20 -3 10 -6 -8 -15 -10
-23 -5 -11 6 -12 5 -2 -7 10 -13 10 -16 -2 -16 -8 0 -12 4 -10 8 3 4 -4 18
-16 30 -11 13 -18 19 -15 12 4 -6 2 -14 -4 -18 -9 -6 -14 8 -11 28 1 4 -8 3
-20 -3 -17 -10 -25 -8 -45 11 -23 21 -24 22 -18 4 5 -15 4 -17 -5 -9 -7 6 -13
20 -14 32 -1 17 -4 19 -15 10 -8 -7 -16 -8 -20 -2 -4 5 -19 15 -34 23 -16 8
-28 19 -28 24 0 6 9 2 20 -8 11 -10 23 -15 27 -12 3 4 1 7 -6 7 -7 0 -9 5 -5
12 4 6 3 8 -4 4 -6 -3 -14 -2 -17 4 -5 8 -12 7 -23 -2 -14 -12 -14 -10 -3 10
6 12 8 22 4 21 -21 -4 -33 2 -33 16 0 8 -5 15 -11 15 -5 0 -7 -6 -3 -12 4 -7
-2 -4 -14 6 -17 15 -19 22 -11 33 9 10 8 13 -5 13 -11 0 -14 5 -10 12 5 8 2 9
-11 4 -16 -6 -16 -4 -4 10 11 14 11 18 -4 29 -9 6 -13 16 -9 21 4 4 -1 3 -10
-5 -15 -11 -16 -10 -12 14 4 22 2 26 -11 22 -8 -4 -15 -2 -15 3 0 6 8 10 18
10 14 0 15 2 2 9 -8 6 -18 7 -24 4 -5 -3 -6 -1 -2 5 4 6 14 9 24 6 12 -4 11
-2 -3 7 -30 19 -45 36 -38 43 4 3 2 6 -4 6 -6 0 -9 9 -5 22 3 13 1 19 -6 15
-11 -8 -10 6 3 37 6 13 4 21 -3 24 -7 2 -12 8 -12 13 0 6 4 8 9 4 5 -3 13 -1
16 5 4 6 1 9 -5 8 -7 -2 -14 5 -15 15 -2 9 1 17 6 17 6 0 7 6 2 13 -11 18 -12
67 -1 74 6 3 4 9 -3 14 -12 7 -12 10 0 21 12 11 12 10 6 -2 -8 -13 -6 -13 7
-2 9 7 15 23 13 34 -3 12 1 28 8 37 9 12 9 13 0 7 -9 -5 -11 -2 -7 8 4 10 1
16 -7 16 -7 0 -9 3 -6 6 4 4 13 1 22 -6 13 -11 14 -10 9 5 -6 14 -4 16 7 10
12 -7 12 -6 1 7 -10 13 -10 18 -1 24 8 5 9 3 4 -6 -5 -9 -4 -11 4 -6 9 6 9 11
1 21 -9 11 -8 19 3 35 7 11 16 18 19 15 3 -3 11 2 19 12 8 9 9 14 2 10 -6 -4
-15 -3 -18 3 -4 6 -3 10 2 9 23 -4 43 2 38 11 -4 6 -11 7 -17 4 -6 -4 -8 -2
-5 4 4 5 17 8 30 6 12 -2 16 -2 10 2 -7 3 -13 13 -13 22 0 15 2 15 10 2 8 -13
10 -12 11 5 1 11 1 23 1 26 -1 4 8 5 18 2 22 -6 28 12 8 21 -7 4 -3 4 10 2 17
-3 25 2 32 20 5 13 14 24 20 24 6 0 8 5 4 11 -4 8 -1 8 12 1 24 -13 52 5 48
31 -2 13 1 15 10 8 9 -7 17 -5 28 9 9 10 13 22 10 26 -4 4 -2 4 5 0 7 -4 11
-12 9 -19 -1 -7 -1 -9 1 -4 3 4 9 7 15 7 6 0 17 8 24 18 13 16 14 16 8 0 -3
-10 -1 -18 5 -18 10 0 16 22 12 44 -1 5 5 3 14 -4 20 -16 48 -23 39 -9 -3 5 2
9 11 9 9 0 14 4 11 9 -3 5 1 11 9 14 10 4 12 1 8 -10 -5 -13 -1 -12 23 3 17
12 25 14 20 5 -6 -9 -5 -12 5 -9 8 3 13 11 11 17 -1 7 2 10 8 6 34 -21 72 -2
53 28 -4 6 -1 8 8 5 11 -4 15 1 15 17 0 13 -4 21 -8 19 -8 -5 -9 -4 -13 34 -3
30 -11 37 -19 17 -4 -11 -2 -14 6 -9 7 4 8 3 4 -5 -6 -8 -12 -9 -20 -2 -7 6
-17 7 -21 3 -5 -4 -5 -1 -1 6 4 7 12 9 18 6 7 -4 8 -2 4 5 -6 9 -13 8 -31 -3
-17 -12 -26 -13 -31 -4 -4 7 -3 8 4 4 8 -5 10 -2 6 8 -8 21 -11 20 -19 -5z
m-64 -143 c14 8 11 -2 -4 -14 -10 -8 -13 -6 -14 11 0 12 1 16 4 9 3 -6 9 -10
14 -6z m-196 -95 c3 -5 2 -12 -3 -15 -5 -3 -9 1 -9 9 0 17 3 19 12 6z m895
-37 c0 -2 -9 0 -20 6 -11 6 -20 13 -20 16 0 2 9 0 20 -6 11 -6 20 -13 20 -16z
m134 -142 c3 -5 -1 -9 -9 -9 -8 0 -12 4 -9 9 3 4 7 8 9 8 2 0 6 -4 9 -8z
m-1299 -210 c3 -16 0 -19 -13 -15 -9 4 -11 8 -5 10 7 3 9 12 6 21 -3 9 -3 14
1 11 4 -4 8 -16 11 -27z m-141 -60 c3 -5 -1 -9 -9 -9 -8 0 -12 4 -9 9 3 4 7 8
9 8 2 0 6 -4 9 -8z m1486 -326 c0 -3 -4 -8 -10 -11 -5 -3 -10 -1 -10 4 0 6 5
11 10 11 6 0 10 -2 10 -4z m-490 -336 c0 -5 -5 -10 -11 -10 -5 0 -7 5 -4 10 3
6 8 10 11 10 2 0 4 -4 4 -10z m201 -53 c-10 -9 -11 -8 -5 6 3 10 9 15 12 12 3
-3 0 -11 -7 -18z m-721 -87 c0 -5 -2 -10 -4 -10 -3 0 -8 5 -11 10 -3 6 -1 10
4 10 6 0 11 -4 11 -10z"/>
<path d="M870 1876 c0 -2 7 -7 16 -10 8 -3 12 -2 9 4 -6 10 -25 14 -25 6z"/>
<path d="M2041 1873 c-1 -17 16 -25 25 -12 4 7 3 9 -4 5 -5 -3 -13 0 -15 6 -4
9 -6 10 -6 1z"/>
<path d="M232 1813 c-30 -46 -24 -52 7 -7 13 19 22 36 20 39 -2 2 -15 -12 -27
-32z"/>
<path d="M1836 1832 c-3 -5 1 -9 9 -9 8 0 12 4 9 9 -3 4 -7 8 -9 8 -2 0 -6 -4
-9 -8z"/>
<path d="M197 1755 c3 -8 9 -12 14 -9 12 7 11 11 -5 17 -10 4 -13 1 -9 -8z"/>
<path d="M1135 1760 c3 -5 8 -10 11 -10 2 0 4 5 4 10 0 6 -5 10 -11 10 -5 0
-7 -4 -4 -10z"/>
<path d="M1555 1740 c-3 -5 -1 -10 4 -10 6 0 11 5 11 10 0 6 -2 10 -4 10 -3 0
-8 -4 -11 -10z"/>
<path d="M2373 1673 c0 -11 7 -20 14 -20 10 0 10 4 1 16 -7 9 -13 18 -15 20
-1 2 -1 -5 0 -16z"/>
<path d="M2203 1585 c0 -8 4 -12 9 -9 5 3 6 10 3 15 -9 13 -12 11 -12 -6z"/>
<path d="M508 1573 c6 -2 9 -10 6 -15 -4 -7 -2 -8 5 -4 13 9 5 26 -12 25 -9 0
-8 -2 1 -6z"/>
<path d="M1126 1528 c3 -5 10 -6 15 -3 13 9 11 12 -6 12 -8 0 -12 -4 -9 -9z"/>
<path d="M246 1491 c-3 -5 1 -11 9 -14 9 -4 12 -1 8 9 -6 16 -10 17 -17 5z"/>
<path d="M59 1463 c-13 -16 -12 -17 4 -4 16 13 21 21 13 21 -2 0 -10 -8 -17
-17z"/>
<path d="M1866 1461 c-3 -5 2 -15 12 -22 15 -12 16 -12 5 2 -7 9 -10 19 -6 22
3 4 4 7 0 7 -3 0 -8 -4 -11 -9z"/>
<path d="M605 1431 c-3 -5 -1 -12 5 -16 5 -3 10 1 10 9 0 18 -6 21 -15 7z"/>
<path d="M2453 1407 c0 -8 6 -14 14 -14 9 0 10 4 2 14 -6 7 -12 13 -14 13 -1
0 -2 -6 -2 -13z"/>
<path d="M2100 1381 c0 -6 4 -13 10 -16 6 -3 7 1 4 9 -7 18 -14 21 -14 7z"/>
<path d="M1762 1237 c10 -8 15 -17 11 -20 -3 -4 -1 -7 5 -7 23 0 20 18 -6 29
-23 10 -25 10 -10 -2z"/>
<path d="M770 1219 c0 -5 5 -7 10 -4 6 3 10 8 10 11 0 2 -4 4 -10 4 -5 0 -10
-5 -10 -11z"/>
<path d="M1774 1175 c-1 -14 2 -25 6 -25 16 0 19 17 7 34 -11 14 -12 13 -13
-9z"/>
<path d="M187 1183 c-2 -5 -2 -17 0 -28 2 -11 5 -25 5 -31 1 -6 7 -11 14 -11
10 0 10 5 -1 20 -10 14 -11 24 -4 33 6 8 7 14 0 18 -5 4 -12 3 -14 -1z"/>
<path d="M766 1093 c-6 -14 -5 -15 5 -6 7 7 10 15 7 18 -3 3 -9 -2 -12 -12z"/>
<path d="M1770 1080 c0 -5 5 -10 11 -10 5 0 7 5 4 10 -3 6 -8 10 -11 10 -2 0
-4 -4 -4 -10z"/>
<path d="M779 1021 c6 -10 7 -22 3 -26 -4 -5 -1 -5 6 -1 9 5 9 12 2 27 -6 10
-13 19 -16 19 -2 0 0 -8 5 -19z"/>
<path d="M540 1026 c0 -2 6 -9 13 -15 10 -8 14 -7 14 4 0 8 -6 15 -14 15 -7 0
-13 -2 -13 -4z"/>
<path d="M209 1008 c-10 -32 2 -61 15 -39 4 5 1 13 -5 17 -8 4 -7 9 2 15 10 6
11 9 2 9 -7 0 -13 -1 -14 -2z"/>
<path d="M1525 1000 c-3 -5 -1 -10 4 -10 6 0 11 5 11 10 0 6 -2 10 -4 10 -3 0
-8 -4 -11 -10z"/>
<path d="M2487 988 c3 -13 10 -28 14 -34 5 -6 5 -15 1 -19 -4 -5 2 -5 13 -1
16 6 18 5 7 -6 -7 -7 -24 -13 -38 -13 l-25 -1 23 18 c13 10 18 18 11 18 -6 0
-15 -5 -18 -10 -5 -8 -12 -7 -23 2 -15 11 -15 11 -6 -2 5 -8 9 -21 8 -27 -1
-7 -2 -18 -3 -24 0 -5 -5 -8 -9 -5 -4 2 -9 -5 -9 -17 -2 -20 -1 -20 8 -4 6 9
15 15 20 11 5 -3 16 0 24 6 9 7 15 8 15 2 0 -12 -29 -24 -41 -16 -5 3 -9 -2
-9 -10 0 -9 -5 -16 -11 -16 -6 0 -4 -7 5 -15 16 -16 12 -45 -7 -45 -6 0 -2 -7
9 -15 19 -15 19 -15 -1 -9 -15 4 -17 4 -6 -4 12 -9 12 -13 -2 -27 -10 -9 -15
-21 -12 -26 8 -12 -1 -11 -28 2 -20 9 -21 9 -4 -4 17 -14 17 -15 0 -22 -10 -5
-22 -7 -27 -6 -5 1 -4 -4 2 -12 7 -8 9 -17 5 -20 -3 -4 -1 -7 6 -7 7 0 9 -5 5
-11 -4 -7 1 -7 16 1 20 11 21 10 15 -9 -3 -12 -2 -21 4 -21 5 0 8 14 6 30 -2
17 0 28 5 25 5 -3 7 6 4 21 -3 19 -1 24 8 18 8 -5 7 -1 -2 11 -14 17 -13 18 3
12 10 -4 16 -3 12 2 -8 14 6 42 18 34 6 -3 7 -1 3 5 -4 7 -1 12 10 12 12 0 15
6 11 26 -3 16 0 24 7 21 7 -3 12 6 11 23 0 20 -4 26 -15 23 -13 -4 -13 -3 0 9
8 7 15 19 16 26 3 33 4 34 21 21 15 -12 16 -12 8 1 -5 8 -8 23 -7 33 2 10 -2
16 -10 15 -7 -2 -13 4 -13 12 -1 19 -14 40 -25 40 -4 0 -6 -10 -3 -22z m-7
-88 c0 -5 -5 -10 -11 -10 -5 0 -7 5 -4 10 3 6 8 10 11 10 2 0 4 -4 4 -10z m10
-121 c0 -5 -8 -9 -17 -8 -11 0 -13 3 -5 6 6 2 9 10 6 15 -4 7 -2 8 4 4 7 -4
12 -11 12 -17z m-65 -119 c-3 -5 -13 -6 -23 -3 -15 6 -15 5 -3 -10 7 -9 9 -17
3 -17 -18 0 -22 29 -4 39 18 10 35 5 27 -9z"/>
<path d="M560 980 c0 -5 5 -10 11 -10 5 0 7 5 4 10 -3 6 -8 10 -11 10 -2 0 -4
-4 -4 -10z"/>
<path d="M575 950 c3 -5 8 -10 11 -10 2 0 4 5 4 10 0 6 -5 10 -11 10 -5 0 -7
-4 -4 -10z"/>
<path d="M1375 809 c-4 -6 -5 -12 -2 -15 2 -3 7 2 10 11 7 17 1 20 -8 4z"/>
<path d="M470 759 c0 -5 5 -7 10 -4 6 3 10 8 10 11 0 2 -4 4 -10 4 -5 0 -10
-5 -10 -11z"/>
<path d="M675 740 c4 -6 11 -8 16 -5 14 9 11 15 -7 15 -8 0 -12 -5 -9 -10z"/>
<path d="M1826 738 c3 -5 10 -6 15 -3 13 9 11 12 -6 12 -8 0 -12 -4 -9 -9z"/>
<path d="M2396 742 c-3 -5 1 -9 9 -9 8 0 12 4 9 9 -3 4 -7 8 -9 8 -2 0 -6 -4
-9 -8z"/>
<path d="M2006 678 c3 -5 10 -6 15 -3 13 9 11 12 -6 12 -8 0 -12 -4 -9 -9z"/>
<path d="M815 630 c3 -5 8 -10 11 -10 2 0 4 5 4 10 0 6 -5 10 -11 10 -5 0 -7
-4 -4 -10z"/>
<path d="M2353 556 c1 -6 -4 -10 -11 -8 -8 1 -11 -2 -7 -8 5 -8 13 -6 26 6 23
21 23 21 5 21 -8 0 -14 -5 -13 -11z"/>
<path d="M2313 525 c0 -8 4 -12 9 -9 5 3 6 10 3 15 -9 13 -12 11 -12 -6z"/>
<path d="M1180 526 c0 -2 8 -10 18 -17 15 -13 16 -12 3 4 -13 16 -21 21 -21
13z"/>
<path d="M2329 503 c-13 -16 -12 -17 4 -4 16 13 21 21 13 21 -2 0 -10 -8 -17
-17z"/>
<path d="M210 491 c0 -5 7 -12 16 -15 14 -5 15 -4 4 9 -14 17 -20 19 -20 6z"/>
<path d="M791 248 c2 -2 16 -13 30 -26 19 -17 26 -19 26 -8 0 8 -4 13 -9 10
-4 -3 -11 2 -14 10 -3 9 -13 16 -22 16 -8 0 -13 -1 -11 -2z"/>
<path d="M1270 180 c-8 -15 -8 -18 3 -14 8 3 14 11 14 19 0 20 -4 19 -17 -5z"/>
<path d="M1045 181 c-7 -12 4 -18 29 -17 11 1 21 8 23 16 4 13 3 13 -7 0 -9
-11 -13 -12 -17 -2 -6 14 -19 16 -28 3z"/>
<path d="M1223 174 c0 -7 6 -10 14 -7 7 3 13 8 13 12 0 4 -6 8 -13 8 -8 0 -14
-6 -14 -13z"/>
<path d="M1639 104 c-7 -9 -6 -12 6 -10 22 3 40 23 20 23 -8 0 -20 -6 -26 -13z"/>
<path d="M1475 40 c3 -5 8 -10 11 -10 2 0 4 5 4 10 0 6 -5 10 -11 10 -5 0 -7
-4 -4 -10z"/>
</g>
</svg>
