<svg xmlns="http://www.w3.org/2000/svg" viewBox="0 0 29 40"><defs><linearGradient id="a" x1="29.08" x2=".08" y1="20" y2="20.01" gradientUnits="userSpaceOnUse"><stop offset="0" stop-color="#ff7d56"/><stop offset="1" stop-color="#ff498e"/></linearGradient></defs><path fill="#00ffef" d="M29.08 14.49c0 9.92-12.98 24.47-13.53 25.09a1.3 1.3 0 01-1.94 0C13.05 38.96.08 24.4.08 14.49a14.51 14.51 0 0129 0zm-2.61 0a11.9 11.9 0 00-23.78 0c0 6.8 7.52 17.03 11.89 22.22 4.37-5.19 11.89-15.41 11.89-22.22zm-4.6 0a7.3 7.3 0 11-14.6-.02 7.3 7.3 0 0114.6.02zm-2.6 0a4.69 4.69 0 00-4.7-4.68 4.69 4.69 0 00-4.68 4.68 4.69 4.69 0 004.69 4.68c2.58 0 4.68-2.1 4.68-4.68z"/><path fill="url(#a)" d="M29.08 14.49c0 9.92-12.98 24.47-13.53 25.09a1.3 1.3 0 01-1.94 0C13.05 38.96.08 24.4.08 14.49a14.51 14.51 0 0129 0zm-2.61 0a11.9 11.9 0 00-23.78 0c0 6.8 7.52 17.03 11.89 22.22 4.37-5.19 11.89-15.41 11.89-22.22zm-4.6 0a7.3 7.3 0 11-14.6-.02 7.3 7.3 0 0114.6.02zm-2.6 0a4.69 4.69 0 00-4.7-4.68 4.69 4.69 0 00-4.68 4.68 4.69 4.69 0 004.69 4.68c2.58 0 4.68-2.1 4.68-4.68z"/></svg>