<svg xmlns="http://www.w3.org/2000/svg" viewBox="0 0 43 40"><defs><linearGradient id="a" x1="43" x2="0" y1="19.98" y2="20" gradientUnits="userSpaceOnUse"><stop offset="0" stop-color="#ff7d56"/><stop offset="1" stop-color="#ff498e"/></linearGradient></defs><path fill="#00ffef" d="M43 38.85a1.1 1.1 0 01-1.1 1.1L1.13 40a1.1 1.1 0 01-1.1-1.1L0 15.14v-.02c0-.34.17-.68.48-.89l6.18-4.26V5.45a1.1 1.1 0 011.1-1.1h7.05L20.88.18a1.1 1.1 0 011.25 0l6.03 4.17h7.08a1.1 1.1 0 011.1 1.1v4.57l6.15 4.26c.22.15.37.37.44.6.02.06.04.16.04.23zm-6.66-21.29l3.52-2.44-3.52-2.43zM18.69 4.36h5.6L21.5 2.4zM8.86 19.13l8.5 5.84 3.48-2.7c.4-.3.95-.3 1.34 0h.01l3.46 2.68 8.49-5.87V6.55H8.86zm-5.82-4.01l3.62 2.49v-5zm-.8 21.54l13.3-10.28L2.2 17.22zm36.37 1.08l-17.1-13.2L4.37 37.8zm2.18-1.09l-.02-19.5-13.3 9.21zM30.06 12.03a1.1 1.1 0 01-1.1 1.1H14.05a1.1 1.1 0 01-1.1-1.1 1.1 1.1 0 011.1-1.1h14.9a1.1 1.1 0 011.1 1.1zm0 5.7c0 .6-.5 1.1-1.1 1.1H14.05a1.1 1.1 0 01-1.1-1.1 1.1 1.1 0 011.1-1.1h14.9c.61 0 1.1.5 1.1 1.1z"/><path fill="url(#a)" d="M43 38.85a1.1 1.1 0 01-1.1 1.1L1.13 40a1.1 1.1 0 01-1.1-1.1L0 15.14v-.02c0-.34.17-.68.48-.89l6.18-4.26V5.45a1.1 1.1 0 011.1-1.1h7.05L20.88.18a1.1 1.1 0 011.25 0l6.03 4.17h7.08a1.1 1.1 0 011.1 1.1v4.57l6.15 4.26c.22.15.37.37.44.6.02.06.04.16.04.23zm-6.66-21.29l3.52-2.44-3.52-2.43zM18.69 4.36h5.6L21.5 2.4zM8.86 19.13l8.5 5.84 3.48-2.7c.4-.3.95-.3 1.34 0h.01l3.46 2.68 8.49-5.87V6.55H8.86zm-5.82-4.01l3.62 2.49v-5zm-.8 21.54l13.3-10.28L2.2 17.22zm36.37 1.08l-17.1-13.2L4.37 37.8zm2.18-1.09l-.02-19.5-13.3 9.21zM30.06 12.03a1.1 1.1 0 01-1.1 1.1H14.05a1.1 1.1 0 01-1.1-1.1 1.1 1.1 0 011.1-1.1h14.9a1.1 1.1 0 011.1 1.1zm0 5.7c0 .6-.5 1.1-1.1 1.1H14.05a1.1 1.1 0 01-1.1-1.1 1.1 1.1 0 011.1-1.1h14.9c.61 0 1.1.5 1.1 1.1z"/></svg>