<svg xmlns="http://www.w3.org/2000/svg" viewBox="0 0 40 40"><defs><linearGradient id="a" x1="39.97" x2="-.03" y1="20" y2="20" gradientUnits="userSpaceOnUse"><stop offset="0" stop-color="#ff7d56"/><stop offset="1" stop-color="#ff498e"/></linearGradient></defs><path fill="#00ffef" d="M38.48 34.69l-2.04 2.03a2.39 2.39 0 01-2.37.61l-.42.43C32.16 39.25 30.09 40 27.6 40a16.6 16.6 0 01-4.98-.85c-4.44-1.4-9.15-4.44-13.26-8.54-4.1-4.1-7.14-8.8-8.55-13.25C-.63 12.82-.22 9.03 1.95 6.62l.69-.7a2.4 2.4 0 01.6-2.36l2.04-2.04a2.39 2.39 0 011.7-.7c.64 0 1.25.25 1.7.7l7.84 7.84a2.4 2.4 0 010 3.39l-2.04 2.04a2.4 2.4 0 01-2.36.6l-.77.77c-.55.55.3 3.95 4.4 8.06 4.12 4.11 7.53 4.95 8.07 4.4l.77-.76a2.4 2.4 0 01.61-2.37l2.04-2.03a2.4 2.4 0 013.4 0l7.84 7.83a2.4 2.4 0 010 3.4zM4.94 5.25l3.92 3.92 3.9 3.9.03.02 2.04-2.04-7.85-7.84zm27.23 30.6l-6.1-6.09-.55.56c-.58.58-1.35.84-2.23.84-2.63 0-6.28-2.3-9.23-5.24-3.94-3.94-6.72-9.14-4.4-11.45l.55-.56-6.09-6.08-.21.21c-1.73 1.73-2.02 4.78-.8 8.6 1.29 4.08 4.11 8.44 7.95 12.27 3.84 3.84 8.2 6.66 12.3 7.96 3.8 1.2 6.86.92 8.59-.8zm4.61-2.86l-7.84-7.84-2.04 2.04 7.84 7.84 2.04-2.04zm-2.87-14.82a1.2 1.2 0 01-2.4 0 9.61 9.61 0 00-2.84-6.85 9.63 9.63 0 00-6.85-2.83 1.2 1.2 0 110-2.4c3.23 0 6.26 1.25 8.55 3.53a12 12 0 013.54 8.55zm6.09 0a1.2 1.2 0 01-2.4 0c0-4.22-1.64-8.17-4.62-11.15A15.68 15.68 0 0021.82 2.4a1.2 1.2 0 110-2.4 18.07 18.07 0 0112.85 5.32A18.04 18.04 0 0140 18.17zm-12.18 0a1.2 1.2 0 11-2.4 0c0-.98-.37-1.86-1.06-2.55a3.48 3.48 0 00-2.54-1.05 1.2 1.2 0 110-2.4c1.63 0 3.1.6 4.24 1.76a5.88 5.88 0 011.76 4.24z"/><path fill="url(#a)" d="M38.48 34.69l-2.04 2.03a2.39 2.39 0 01-2.37.61l-.42.43C32.16 39.25 30.09 40 27.6 40a16.6 16.6 0 01-4.98-.85c-4.44-1.4-9.15-4.44-13.26-8.54-4.1-4.1-7.14-8.8-8.55-13.25C-.63 12.82-.22 9.03 1.95 6.62l.69-.7a2.4 2.4 0 01.6-2.36l2.04-2.04a2.39 2.39 0 011.7-.7c.64 0 1.25.25 1.7.7l7.84 7.84a2.4 2.4 0 010 3.39l-2.04 2.04a2.4 2.4 0 01-2.36.6l-.77.77c-.55.55.3 3.95 4.4 8.06 4.12 4.11 7.53 4.95 8.07 4.4l.77-.76a2.4 2.4 0 01.61-2.37l2.04-2.03a2.4 2.4 0 013.4 0l7.84 7.83a2.4 2.4 0 010 3.4zM4.94 5.25l3.92 3.92 3.9 3.9.03.02 2.04-2.04-7.85-7.84zm27.23 30.6l-6.1-6.09-.55.56c-.58.58-1.35.84-2.23.84-2.63 0-6.28-2.3-9.23-5.24-3.94-3.94-6.72-9.14-4.4-11.45l.55-.56-6.09-6.08-.21.21c-1.73 1.73-2.02 4.78-.8 8.6 1.29 4.08 4.11 8.44 7.95 12.27 3.84 3.84 8.2 6.66 12.3 7.96 3.8 1.2 6.86.92 8.59-.8zm4.61-2.86l-7.84-7.84-2.04 2.04 7.84 7.84 2.04-2.04zm-2.87-14.82a1.2 1.2 0 01-2.4 0 9.61 9.61 0 00-2.84-6.85 9.63 9.63 0 00-6.85-2.83 1.2 1.2 0 110-2.4c3.23 0 6.26 1.25 8.55 3.53a12 12 0 013.54 8.55zm6.09 0a1.2 1.2 0 01-2.4 0c0-4.22-1.64-8.17-4.62-11.15A15.68 15.68 0 0021.82 2.4a1.2 1.2 0 110-2.4 18.07 18.07 0 0112.85 5.32A18.04 18.04 0 0140 18.17zm-12.18 0a1.2 1.2 0 11-2.4 0c0-.98-.37-1.86-1.06-2.55a3.48 3.48 0 00-2.54-1.05 1.2 1.2 0 110-2.4c1.63 0 3.1.6 4.24 1.76a5.88 5.88 0 011.76 4.24z"/></svg>