<svg xmlns="http://www.w3.org/2000/svg" viewBox="0 0 25 25"><defs><linearGradient id="a" x1="21.49" x2="5.49" y1="11.28" y2="10.71" gradientUnits="userSpaceOnUse"><stop offset="0" stop-color="#ff7d56"/><stop offset="1" stop-color="#ff498e"/></linearGradient><linearGradient id="b" x1="25.01" x2=".01" y1="13" y2="12.01" gradientUnits="userSpaceOnUse"><stop offset="0" stop-color="#ff7d56"/><stop offset="1" stop-color="#ff498e"/></linearGradient></defs><path d="M20.23 9.76L7.99 2.46c-.36-.21-.8-.18-1.15-.18-1.35 0-1.35 1-1.35 1.25v14.93c0 .21 0 1.24 1.35 1.24.34 0 .8.04 1.15-.17l12.24-7.3c1-.57.83-1.24.83-1.24s.17-.67-.83-1.23z"/><path fill="url(#a)" d="M20.23 9.76L7.99 2.46c-.36-.21-.8-.18-1.15-.18-1.35 0-1.35 1-1.35 1.25v14.93c0 .21 0 1.24 1.35 1.24.34 0 .8.04 1.15-.17l12.24-7.3c1-.57.83-1.24.83-1.24s.17-.67-.83-1.23z"/><g opacity=".25"><path d="M23.27 6.46L3.27.07C2.66-.1 2.04.1 1.56.2-.36.65 0 2.05.1 2.41l5.36 21.2c.08.3.44 1.76 2.37 1.32.48-.11 1.13-.21 1.57-.62L24.16 9.96c1.22-1.13.73-2.02.73-2.02s.01-1-1.62-1.48z"/><path fill="url(#b)" d="M23.27 6.46L3.27.07C2.66-.1 2.04.1 1.56.2-.36.65 0 2.05.1 2.41l5.36 21.2c.08.3.44 1.76 2.37 1.32.48-.11 1.13-.21 1.57-.62L24.16 9.96c1.22-1.13.73-2.02.73-2.02s.01-1-1.62-1.48z"/></g></svg>