<svg xmlns="http://www.w3.org/2000/svg" viewBox="0 0 11 12"><defs><linearGradient id="a" x1="11" x2="0" y1="6.02" y2="6" gradientUnits="userSpaceOnUse"><stop offset="0" stop-color="#ff7d56"/><stop offset="1" stop-color="#ff498e"/></linearGradient></defs><path d="M10.3 5.16L1.75.14C1.5 0 1.18.03.95.03 0 .03 0 .7 0 .88v10.26c0 .15 0 .86.95.86.23 0 .55.02.8-.12l8.55-5.02c.7-.39.58-.85.58-.85s.12-.46-.58-.85z"/><path fill="url(#a)" d="M10.3 5.16L1.75.14C1.5 0 1.18.03.95.03 0 .03 0 .7 0 .88v10.26c0 .15 0 .86.95.86.23 0 .55.02.8-.12l8.55-5.02c.7-.39.58-.85.58-.85s.12-.46-.58-.85z"/></svg>